<svg width="3215" height="2214" xmlns="http://www.w3.org/2000/svg" xmlns:xlink="http://www.w3.org/1999/xlink" overflow="hidden"><defs><clipPath id="clip0"><rect x="510" y="224" width="3215" height="2214"/></clipPath><clipPath id="clip1"><rect x="510" y="1280" width="1159" height="1158"/></clipPath><clipPath id="clip2"><rect x="510" y="1280" width="1159" height="1158"/></clipPath><clipPath id="clip3"><rect x="510" y="1280" width="1159" height="1158"/></clipPath><clipPath id="clip4"><rect x="1653" y="224" width="976" height="977"/></clipPath><clipPath id="clip5"><rect x="1653" y="224" width="976" height="977"/></clipPath><clipPath id="clip6"><rect x="1653" y="224" width="976" height="977"/></clipPath><clipPath id="clip7"><rect x="2642" y="1302" width="1083" height="1084"/></clipPath><clipPath id="clip8"><rect x="2642" y="1302" width="1083" height="1084"/></clipPath><clipPath id="clip9"><rect x="2642" y="1302" width="1083" height="1084"/></clipPath><clipPath id="clip10"><rect x="928" y="667" width="290" height="293"/></clipPath><clipPath id="clip11"><rect x="928" y="667" width="290" height="293"/></clipPath><clipPath id="clip12"><rect x="928" y="667" width="290" height="293"/></clipPath><clipPath id="clip13"><rect x="1982" y="1441" width="331" height="330"/></clipPath><clipPath id="clip14"><rect x="1982" y="1441" width="331" height="330"/></clipPath><clipPath id="clip15"><rect x="1982" y="1441" width="331" height="330"/></clipPath><clipPath id="clip16"><rect x="3037" y="634" width="302" height="303"/></clipPath><clipPath id="clip17"><rect x="3037" y="634" width="302" height="303"/></clipPath><clipPath id="clip18"><rect x="3037" y="634" width="302" height="303"/></clipPath></defs><g clip-path="url(#clip0)" transform="translate(-510 -224)"><g clip-path="url(#clip1)"><g clip-path="url(#clip2)"><g clip-path="url(#clip3)"><path d="M1013.25 928.812 675.5 928.812 675.5 880.562 591.062 880.562 591.062 772 916.75 772C943.397 772 965 750.397 965 723.75L965 603.125C964.955 589.216 958.872 576.011 948.329 566.937 958.872 557.864 964.955 544.659 965 530.75L965 410.125C964.955 396.216 958.872 383.011 948.329 373.937 958.872 364.864 964.955 351.659 965 337.75L965 217.125C965 190.478 943.397 168.875 916.75 168.875L241.25 168.875C214.603 168.875 193 190.478 193 217.125L193 337.75C193.045 351.659 199.128 364.864 209.67 373.937 199.128 383.011 193.045 396.216 193 410.125L193 530.75C193.045 544.659 199.128 557.864 209.67 566.937 199.128 576.011 193.045 589.216 193 603.125L193 723.75C193 750.397 214.603 772 241.25 772L566.937 772 566.937 880.562 482.5 880.562 482.5 928.812 144.75 928.812 144.75 952.937 482.5 952.937 482.5 1001.19 675.5 1001.19 675.5 952.937 1013.25 952.937ZM217.125 337.75 217.125 217.125C217.125 203.801 227.926 193 241.25 193L916.75 193C930.074 193 940.875 203.801 940.875 217.125L940.875 337.75C940.875 351.074 930.074 361.875 916.75 361.875L241.25 361.875C227.926 361.875 217.125 351.074 217.125 337.75ZM217.125 530.75 217.125 410.125C217.125 396.801 227.926 386 241.25 386L916.75 386C930.074 386 940.875 396.801 940.875 410.125L940.875 530.75C940.875 544.074 930.074 554.875 916.75 554.875L241.25 554.875C227.926 554.875 217.125 544.074 217.125 530.75ZM217.125 723.75 217.125 603.125C217.125 589.801 227.926 579 241.25 579L916.75 579C930.074 579 940.875 589.801 940.875 603.125L940.875 723.75C940.875 737.074 930.074 747.875 916.75 747.875L241.25 747.875C227.926 747.875 217.125 737.074 217.125 723.75ZM651.375 977.062 506.625 977.062 506.625 904.687 651.375 904.687Z" fill="#5D6184" transform="matrix(1.00086 0 0 1 510 1280)"/><path d="M337.75 277.437C337.75 290.761 326.949 301.562 313.625 301.562 300.301 301.562 289.5 290.761 289.5 277.437 289.5 264.114 300.301 253.312 313.625 253.312 326.949 253.312 337.75 264.114 337.75 277.437Z" fill="#5D6184" transform="matrix(1.00086 0 0 1 510 1280)"/><path d="M458.375 277.437C458.375 290.761 447.574 301.562 434.25 301.562 420.926 301.562 410.125 290.761 410.125 277.437 410.125 264.114 420.926 253.312 434.25 253.312 447.574 253.312 458.375 264.114 458.375 277.437Z" fill="#5D6184" transform="matrix(1.00086 0 0 1 510 1280)"/><path d="M579 277.437C579 290.761 568.199 301.562 554.875 301.562 541.551 301.562 530.75 290.761 530.75 277.437 530.75 264.114 541.551 253.312 554.875 253.312 568.199 253.312 579 264.114 579 277.437Z" fill="#5D6184" transform="matrix(1.00086 0 0 1 510 1280)"/><path d="M337.75 470.437C337.75 483.761 326.949 494.562 313.625 494.562 300.301 494.562 289.5 483.761 289.5 470.437 289.5 457.114 300.301 446.312 313.625 446.312 326.949 446.312 337.75 457.114 337.75 470.437Z" fill="#5D6184" transform="matrix(1.00086 0 0 1 510 1280)"/><path d="M458.375 470.437C458.375 483.761 447.574 494.562 434.25 494.562 420.926 494.562 410.125 483.761 410.125 470.437 410.125 457.114 420.926 446.312 434.25 446.312 447.574 446.312 458.375 457.114 458.375 470.437Z" fill="#5D6184" transform="matrix(1.00086 0 0 1 510 1280)"/><path d="M579 470.437C579 483.761 568.199 494.562 554.875 494.562 541.551 494.562 530.75 483.761 530.75 470.437 530.75 457.114 541.551 446.312 554.875 446.312 568.199 446.312 579 457.114 579 470.437Z" fill="#5D6184" transform="matrix(1.00086 0 0 1 510 1280)"/><path d="M337.75 663.437C337.75 676.761 326.949 687.562 313.625 687.562 300.301 687.562 289.5 676.761 289.5 663.437 289.5 650.113 300.301 639.312 313.625 639.312 326.949 639.312 337.75 650.113 337.75 663.437Z" fill="#5D6184" transform="matrix(1.00086 0 0 1 510 1280)"/><path d="M458.375 663.437C458.375 676.761 447.574 687.562 434.25 687.562 420.926 687.562 410.125 676.761 410.125 663.437 410.125 650.113 420.926 639.312 434.25 639.312 447.574 639.312 458.375 650.113 458.375 663.437Z" fill="#5D6184" transform="matrix(1.00086 0 0 1 510 1280)"/><path d="M579 663.437C579 676.761 568.199 687.562 554.875 687.562 541.551 687.562 530.75 676.761 530.75 663.437 530.75 650.113 541.551 639.312 554.875 639.312 568.199 639.312 579 650.113 579 663.437Z" fill="#5D6184" transform="matrix(1.00086 0 0 1 510 1280)"/></g></g></g><g clip-path="url(#clip4)"><g clip-path="url(#clip5)"><g clip-path="url(#clip6)"><path d="M2159.45 335.833C2177.21 335.76 2193.7 345.027 2202.86 360.233L2380 651.234C2380.07 651.356 2380 651.417 2379.89 651.386L2277.79 625.197 2272.71 644.9 2409.96 680.097 2445.17 542.847 2425.46 537.764 2398.65 642.419C2398.65 642.552 2398.53 642.562 2398.46 642.419L2220.24 349.619C2207.39 328.345 2184.31 315.387 2159.45 315.5L2159.45 315.5C2134.59 315.402 2111.51 328.374 2098.67 349.66L1985.89 534.927 2003.26 545.501 2116.03 360.233C2125.25 345.084 2141.71 335.837 2159.44 335.833Z" fill="#5D6184"/><path d="M1758.54 1000.85C1748.4 984.613 1748.35 964.037 1758.41 947.755L1948.97 634.733C1949.04 634.622 1949.12 634.632 1949.16 634.733L1975.28 734.133 1994.95 728.968 1959.36 593.752 1824.15 629.335 1829.31 648.997 1932.9 621.771C1933.04 621.771 1933.09 621.771 1933.01 621.923L1741.03 937.182C1727.65 958.862 1727.03 986.086 1739.43 1008.35 1752.83 1031.59 1777.77 1045.73 1804.6 1045.3L2040.82 1045.3 2040.82 1024.97 1803.93 1024.97C1785.65 1025.32 1768.48 1016.2 1758.54 1000.85Z" fill="#5D6184"/><path d="M2326.92 764.084C2324.56 764.084 2322.24 764.056 2319.96 764.003 2231.9 765.782 2161.94 838.604 2163.7 926.669 2163.72 943.89 2166.38 961.004 2171.61 977.411 2176.69 992.643 2184.34 1006.89 2194.23 1019.54L2197.97 1024.47 2189.64 1032.61C2152.44 1070.62 2135.85 1099.18 2135.85 1125.17 2135.85 1130.79 2140.4 1135.34 2146.01 1135.34 2151.63 1135.34 2156.18 1130.79 2156.18 1125.17 2156.18 1112.59 2161.15 1090.79 2203.96 1047.01L2210.73 1040.45C2231.82 1064.77 2260.41 1081.38 2291.98 1087.66 2301.07 1089.35 2310.3 1090.2 2319.56 1090.2L2320.51 1090.2C2347.66 1090.2 2374.29 1082.78 2397.53 1068.75 2517.09 999.513 2532.13 872.023 2532.13 728.877 2532.14 728.826 2409.15 764.084 2326.92 764.084ZM2387.03 1051.29C2366.97 1063.43 2343.97 1069.85 2320.52 1069.87L2319.57 1069.87C2311.56 1069.86 2303.57 1069.13 2295.7 1067.67 2268.26 1062.15 2243.49 1047.55 2225.38 1026.22L2369.02 887.101C2373.2 883.352 2373.55 876.924 2369.8 872.744 2366.05 868.564 2359.62 868.214 2355.44 871.962 2355.25 872.135 2355.07 872.314 2354.89 872.501L2212.69 1010.23 2210.42 1007.24C2201.94 996.436 2195.37 984.265 2190.99 971.25 2186.36 956.704 2184.01 941.528 2184.03 926.263 2182.59 849.63 2243.31 786.224 2319.93 784.336 2322.23 784.397 2324.57 784.417 2326.93 784.417 2388.55 784.417 2470.28 765.863 2511.59 755.361 2509.09 895.691 2484.93 994.633 2387.03 1051.29Z" fill="#5D6184"/></g></g></g><g clip-path="url(#clip7)"><g clip-path="url(#clip8)"><g clip-path="url(#clip9)"><path d="M664.466 582.112C664.466 582.112 664.466 582.112 664.466 582.112 664.466 582.112 664.466 582.112 664.466 582.112 655.44 502.016 583.241 443.353 503.144 451.25 450.122 456.891 404.997 489.606 383.562 538.116L403.869 547.141C430.944 483.966 504.272 455.762 567.447 482.837 606.931 499.759 634.006 535.859 640.775 578.728 640.775 578.728 640.775 578.728 640.775 578.728 640.775 578.728 640.775 578.728 640.775 578.728L615.956 553.909 600.162 569.703 653.184 622.725 706.206 569.703 690.412 553.909 664.466 582.112Z" fill="#5D6184" transform="matrix(1 0 0 1.00092 2642 1302)"/><path d="M518.937 722C456.891 722 404.997 676.875 395.972 615.956 395.972 615.956 395.972 615.956 395.972 615.956 395.972 615.956 395.972 615.956 395.972 615.956L420.791 640.775 436.584 624.981 383.562 570.831 330.541 623.853 346.334 639.647 372.281 613.7C372.281 613.7 372.281 613.7 372.281 613.7 372.281 613.7 372.281 613.7 372.281 613.7 381.306 693.797 452.378 752.459 533.603 744.562 586.625 738.922 631.75 706.206 653.184 657.697L632.878 648.672C612.572 692.669 568.575 722 518.937 722Z" fill="#5D6184" transform="matrix(1 0 0 1.00092 2642 1302)"/><path d="M909.269 506.528C900.244 451.25 869.784 401.612 824.659 368.897 777.278 336.181 719.744 323.772 663.337 335.053 618.212 267.366 543.756 225.625 462.531 225.625 444.481 225.625 425.303 227.881 407.253 232.394 311.362 257.212 239.162 337.309 224.497 435.456 160.194 437.712 101.531 468.172 63.175 518.937 18.05 582.112 10.1531 664.466 41.7406 735.537 74.4562 805.481 142.144 851.734 218.856 856.247L301.209 856.247 769.381 857.375 888.962 857.375C985.981 855.119 1062.69 773.894 1060.44 676.875 1058.18 590.009 993.878 518.937 909.269 506.528 909.269 506.528 909.269 506.528 909.269 506.528ZM1037.87 690.412C1032.23 769.381 967.931 832.556 888.962 834.812L769.381 834.812 301.209 833.684 219.984 833.684C152.297 829.172 91.3781 788.559 63.175 726.512 33.8437 663.337 40.6125 588.881 81.225 532.475 116.197 487.35 168.091 460.275 225.625 458.019L244.803 456.891 247.059 438.841C260.597 349.719 326.028 277.519 412.894 253.828 428.687 250.444 445.609 248.187 462.531 248.187 535.859 248.187 604.675 285.416 644.159 347.462L652.056 359.872 666.722 356.487C716.359 346.334 768.253 357.616 809.994 386.947 850.606 416.278 877.681 460.275 885.578 509.912L887.834 525.706 903.628 527.962C984.853 540.372 1041.26 610.315 1037.87 690.412L1037.87 690.412Z" fill="#5D6184" transform="matrix(1 0 0 1.00092 2642 1302)"/></g></g></g><path d="M1037 1260C1037 1239.01 1054.01 1222 1075 1222 1095.99 1222 1113 1239.01 1113 1260 1113 1280.99 1095.99 1298 1075 1298 1054.01 1298 1037 1280.99 1037 1260Z" fill="#EB8F8A" fill-rule="evenodd"/><path d="M1048 1257C1048 1242.09 1060.09 1230 1075 1230 1089.91 1230 1102 1242.09 1102 1257 1102 1271.91 1089.91 1284 1075 1284 1060.09 1284 1048 1271.91 1048 1257Z" fill="#EB8F8A" fill-rule="evenodd"/><path d="M1235.68 653.747C1325.57 743.643 1325.57 889.392 1235.68 979.288 1176.02 1038.95 1121.76 1104.02 1072.91 1174.49 1024.06 1104.02 969.798 1038.95 910.137 979.288 820.241 889.392 820.241 743.643 910.137 653.747 1000.03 563.852 1145.78 563.852 1235.68 653.747Z" fill="#F3CAB6" fill-rule="evenodd"/><path d="M913 816.5C913 727.858 984.858 656 1073.5 656 1162.14 656 1234 727.858 1234 816.5 1234 905.142 1162.14 977 1073.5 977 984.858 977 913 905.142 913 816.5Z" fill="#FFFFFF" fill-rule="evenodd"/><g clip-path="url(#clip10)"><g clip-path="url(#clip11)"><g clip-path="url(#clip12)"><path d="M145 260.698C125.364 260.698 108.146 246.802 103.917 227.771 99.3853 208.437 109.052 188.802 126.875 180.344L126.875 47.427C126.875 37.4583 135.031 29.3021 145 29.3021 154.969 29.3021 163.125 37.4583 163.125 47.427L163.125 180.344C180.948 188.802 190.312 208.437 186.083 227.771 181.552 246.802 164.635 260.396 145 260.698L145 260.698ZM181.25 170.073 181.25 47.427C181.25 27.4896 164.937 11.1771 145 11.1771 125.062 11.1771 108.75 27.1875 108.75 47.427L108.75 170.073C87.9062 185.781 79.4479 212.969 87.6041 237.437 95.7603 262.208 119.021 278.823 145 278.823 170.979 278.823 194.239 262.208 202.396 237.437 210.552 212.969 202.094 185.781 181.25 170.073Z" fill="#EB8F8A" transform="matrix(1 0 0 1.00345 928 668)"/><path d="M151.042 188.802 151.042 115.698 138.958 115.698 138.958 188.802C123.854 191.823 113.281 206.021 115.094 221.427 116.604 236.833 129.594 248.614 145 248.614 160.406 248.614 173.396 236.833 174.906 221.427 176.719 206.021 166.146 191.823 151.042 188.802Z" fill="#EB8F8A" transform="matrix(1 0 0 1.00345 928 668)"/></g></g></g><path d="M2109 2054C2109 2033.01 2126.01 2016 2147 2016 2167.99 2016 2185 2033.01 2185 2054 2185 2074.99 2167.99 2092 2147 2092 2126.01 2092 2109 2074.99 2109 2054Z" fill="#44969B" fill-rule="evenodd"/><path d="M2305.52 1444.28C2395.42 1534.17 2395.42 1679.92 2305.52 1769.82 2245.86 1829.48 2191.6 1894.55 2142.75 1965.02 2093.9 1894.55 2039.64 1829.48 1979.98 1769.82 1890.08 1679.92 1890.08 1534.17 1979.98 1444.28 2069.87 1354.38 2215.62 1354.38 2305.52 1444.28Z" fill="#B1E5E0" fill-rule="evenodd"/><path d="M1982 1610.5C1982 1521.86 2053.86 1450 2142.5 1450 2231.14 1450 2303 1521.86 2303 1610.5 2303 1699.14 2231.14 1771 2142.5 1771 2053.86 1771 1982 1699.14 1982 1610.5Z" fill="#FFFFFF" fill-rule="evenodd"/><g clip-path="url(#clip13)"><g clip-path="url(#clip14)"><g clip-path="url(#clip15)"><path d="M2273.84 1600.09C2269.05 1535.38 2217.59 1483.94 2152.88 1479.16 2116.67 1476.44 2080.99 1489.06 2054.53 1513.93 2001.76 1563.04 1998.79 1645.62 2047.9 1698.39 2056.33 1707.45 2066 1715.26 2076.62 1721.59 2096.76 1733.62 2122.83 1727.05 2134.86 1706.91 2138.79 1700.33 2140.87 1692.8 2140.87 1685.13 2140.87 1671.62 2141.36 1664.76 2143.81 1658.29 2159.79 1657.28 2174.15 1648.18 2181.89 1634.16L2181.89 1634.16C2202.38 1598.36 2187.05 1564.54 2165.52 1529.22 2165.52 1529.22 2137.73 1558.84 2116.18 1571.1 2093.96 1584.62 2086.92 1613.59 2100.44 1635.81 2100.44 1635.82 2100.45 1635.82 2100.45 1635.83 2104.06 1641.71 2108.92 1646.72 2114.69 1650.49 2119.27 1630.74 2126.15 1611.58 2135.2 1593.43 2136.33 1591.34 2138.94 1590.57 2141.03 1591.69 2143.11 1592.82 2143.89 1595.43 2142.77 1597.52 2142.7 1597.64 2139.8 1603.08 2135.91 1612.61 2130.27 1627.74 2125.85 1643.29 2122.67 1659.11 2122.67 1659.15 2122.18 1661.82 2121.98 1663.08L2121.98 1663.08C2121.08 1668.25 2120.66 1673.49 2120.72 1678.74L2120.72 1678.74C2120.72 1693.65 2116.11 1700.19 2109.17 1704.13 2102.36 1708.06 2093.95 1707.96 2087.24 1703.88 2035.09 1672.82 2018 1605.37 2049.06 1553.23 2054.4 1544.26 2060.99 1536.11 2068.63 1529 2090.91 1508.05 2120.97 1497.43 2151.47 1499.71 2212 1503.99 2257.6 1556.54 2253.32 1617.07 2252.45 1629.34 2249.53 1641.38 2244.67 1652.68 2229.36 1643.64 2209.87 1646.11 2197.29 1658.68L2178.87 1677.08 2188.06 1686.28 2173.35 1700.99C2170.36 1704.1 2170.46 1709.04 2173.58 1712.03 2176.6 1714.93 2181.37 1714.93 2184.39 1712.03L2199.1 1697.31 2213.82 1712.03 2199.1 1726.75C2196.05 1729.79 2196.05 1734.73 2199.1 1737.78 2202.15 1740.83 2207.09 1740.83 2210.14 1737.78L2224.86 1723.07 2234.05 1732.27 2252.45 1713.87C2264.28 1702.02 2267.24 1683.94 2259.79 1668.95 2270.68 1647.71 2275.54 1623.9 2273.84 1600.09Z" fill="#44969B"/></g></g></g><path d="M3149 1248C3149 1227.01 3166.24 1210 3187.5 1210 3208.76 1210 3226 1227.01 3226 1248 3226 1268.99 3208.76 1286 3187.5 1286 3166.24 1286 3149 1268.99 3149 1248Z" fill="#F5911F" fill-rule="evenodd"/><path d="M3160 1248C3160 1233.09 3172.31 1221 3187.5 1221 3202.69 1221 3215 1233.09 3215 1248 3215 1262.91 3202.69 1275 3187.5 1275 3172.31 1275 3160 1262.91 3160 1248Z" fill="#F5911F" fill-rule="evenodd"/><path d="M3346.38 641.754C3436.28 731.65 3436.28 877.399 3346.38 967.295 3286.72 1026.96 3232.46 1092.02 3183.61 1162.5 3134.76 1092.02 3080.5 1026.96 3020.84 967.295 2930.94 877.399 2930.94 731.65 3020.84 641.754 3110.74 551.859 3256.49 551.859 3346.38 641.754Z" fill="#FFD966" fill-rule="evenodd"/><path d="M3024 804.5C3024 715.858 3095.86 644 3184.5 644 3273.14 644 3345 715.858 3345 804.5 3345 893.142 3273.14 965 3184.5 965 3095.86 965 3024 893.142 3024 804.5Z" fill="#FFFFFF" fill-rule="evenodd"/><g clip-path="url(#clip16)"><g clip-path="url(#clip17)"><g clip-path="url(#clip18)"><path d="M3058.95 833.707 3058.95 882.353 3106.07 910.917 3106.07 857.238 3058.95 828.687 3058.95 833.707Z" fill="#F5911F"/><path d="M3268.93 910.917 3316.05 882.353 3316.05 828.659 3268.93 857.207 3268.93 910.917Z" fill="#F5911F"/><path d="M3150.39 727.153C3152.07 726.341 3153.92 725.922 3155.79 725.927 3162.72 725.925 3168.33 731.538 3168.34 738.465 3168.34 743.298 3165.56 747.701 3161.2 749.784L3149.35 755.447 3184.46 776.721 3184.46 723.046 3137.33 694.498 3137.33 733.377Z" fill="#F5911F"/><path d="M3190.54 723.014 3190.54 776.721 3225.66 755.444 3213.81 749.781C3207.56 746.791 3204.92 739.302 3207.91 733.054 3209.99 728.704 3214.39 725.933 3219.21 725.927 3221.08 725.924 3222.93 726.346 3224.62 727.159L3237.67 733.389 3237.67 694.466Z" fill="#F5911F"/><path d="M3210.23 703.982 3216.08 700.427 3237.67 687.352 3187.5 656.948 3165.91 670.023 3160.06 673.578 3137.33 687.352 3187.5 717.756 3210.23 703.982Z" fill="#F5911F"/><path d="M3137.69 834.619 3159.28 821.557 3121.66 798.741 3121.66 812.85C3121.66 819.777 3116.04 825.392 3109.11 825.392 3102.19 825.392 3096.57 819.777 3096.57 812.85L3096.57 798.741 3087.53 804.218 3081.68 807.761 3058.95 821.557 3109.11 851.971 3131.84 838.175Z" fill="#F5911F"/><path d="M3294.46 834.619 3316.05 821.557 3278.43 798.741 3278.43 812.85C3278.43 819.777 3272.81 825.392 3265.89 825.392 3258.96 825.392 3253.34 819.777 3253.34 812.85L3253.34 798.741 3244.3 804.215 3238.45 807.761 3215.72 821.557 3265.89 851.971 3288.61 838.175Z" fill="#F5911F"/><path d="M3215.72 833.707 3215.72 869.363 3224.84 863.766C3230.74 860.143 3238.46 861.992 3242.09 867.896 3245.71 873.8 3243.86 881.523 3237.96 885.147L3229.2 890.536 3262.84 910.917 3262.84 857.238 3215.72 828.687Z" fill="#F5911F"/><path d="M3136.79 883.733C3131 879.924 3129.4 872.146 3133.21 866.361 3136.98 860.637 3144.64 858.998 3150.42 862.678L3159.28 868.416 3159.28 828.659 3112.16 857.207 3112.16 910.917 3146.56 890.063Z" fill="#F5911F"/><path d="M3187.31 907.781C3186.1 907.782 3184.91 907.432 3183.9 906.775L3140.2 878.468C3137.26 876.633 3136.36 872.765 3138.2 869.828 3140.03 866.89 3143.9 865.996 3146.84 867.831 3146.9 867.867 3146.96 867.905 3147.01 867.943L3187.4 894.098 3228.12 869.112C3231.07 867.301 3234.93 868.226 3236.74 871.178 3238.55 874.131 3237.63 877.993 3234.68 879.804L3190.58 906.856C3189.6 907.461 3188.46 907.781 3187.31 907.781Z" fill="#F5911F"/><path d="M3115.39 812.834 3115.39 764.722 3158.5 744.128C3161.62 742.635 3162.95 738.89 3161.45 735.764 3159.96 732.639 3156.21 731.316 3153.09 732.809L3106.42 755.111C3104.23 756.151 3102.85 758.352 3102.84 760.768L3102.84 812.834C3102.84 816.298 3105.65 819.105 3109.11 819.105L3109.11 819.105C3112.58 819.105 3115.39 816.298 3115.39 812.834Z" fill="#F5911F"/><path d="M3272.16 812.834 3272.16 760.768C3272.15 758.357 3270.76 756.163 3268.59 755.124L3221.91 732.825C3218.79 731.332 3215.04 732.654 3213.55 735.78 3212.05 738.906 3213.38 742.65 3216.5 744.144L3259.61 764.722 3259.61 812.834C3259.61 816.298 3262.42 819.105 3265.89 819.105 3269.35 819.105 3272.16 816.298 3272.16 812.834Z" fill="#F5911F"/></g></g></g><text fill="#EB8F8A" font-family="Arial,Arial_MSFontService,sans-serif" font-weight="700" font-size="110" transform="matrix(1 0 0 1 706.904 447)">ASSESSMENT<tspan fill="#0AA8A7" font-size="110" x="1054.84" y="1814">OPTIMIZATION</tspan><tspan fill="#F5911F" font-size="110" x="2101.9" y="1">INTEGRATIO</tspan><tspan fill="#F5911F" font-size="110" x="2779.66" y="1">N</tspan></text></g></svg>