<svg width="849" height="404" xmlns="http://www.w3.org/2000/svg" xmlns:xlink="http://www.w3.org/1999/xlink" overflow="hidden"><defs><filter id="fx0" x="-10%" y="-10%" width="120%" height="120%" filterUnits="userSpaceOnUse" primitiveUnits="userSpaceOnUse"><feComponentTransfer color-interpolation-filters="sRGB"><feFuncR type="discrete" tableValues="0 0"/><feFuncG type="discrete" tableValues="0 0"/><feFuncB type="discrete" tableValues="0 0"/><feFuncA type="linear" slope="0.431373" intercept="0"/></feComponentTransfer><feGaussianBlur stdDeviation="2.95347 2.95347"/></filter><clipPath id="clip1"><rect x="278" y="1936" width="849" height="404"/></clipPath><clipPath id="clip2"><rect x="115" y="98" width="624" height="159"/></clipPath><clipPath id="clip3"><rect x="0" y="0" width="851" height="405"/></clipPath></defs><g clip-path="url(#clip1)" transform="translate(-278 -1936)"><g clip-path="url(#clip2)" filter="url(#fx0)" transform="translate(277 1935)"><g clip-path="url(#clip3)"><path d="M6.6123-42.6226 32.3467-45.1245C33.8955-36.4868 37.0378-30.1426 41.7737-26.0918 46.5095-22.041 52.8984-20.0156 60.9404-20.0156 69.459-20.0156 75.8777-21.8176 80.1965-25.4216 84.5154-29.0256 86.6748-33.2402 86.6748-38.0654 86.6748-41.1631 85.7663-43.7991 83.9495-45.9734 82.1326-48.1477 78.9604-50.0391 74.4331-51.6475 71.3354-52.7197 64.2764-54.626 53.2559-57.3662 39.0781-60.8809 29.1299-65.1997 23.4111-70.3227 15.3691-77.5308 11.3481-86.3174 11.3481-96.6826 11.3481-103.354 13.2395-109.594 17.0222-115.403 20.8049-121.211 26.2556-125.634 33.3743-128.672 40.4929-131.71 49.0859-133.229 59.1533-133.229 75.5947-133.229 87.9705-129.625 96.2805-122.417 104.591-115.209 108.954-105.588 109.371-93.5552L82.9219-92.3935C81.79-99.125 79.3625-103.965 75.6394-106.914 71.9163-109.863 66.3315-111.337 58.8853-111.337 51.2007-111.337 45.1841-109.758 40.8354-106.601 38.0356-104.576 36.6357-101.865 36.6357-98.4697 36.6357-95.3721 37.9463-92.7212 40.5674-90.5171 43.9033-87.7173 52.0049-84.7983 64.8721-81.7602 77.7393-78.7222 87.2556-75.5798 93.4211-72.3332 99.5867-69.0867 104.412-64.6487 107.897-59.0193 111.382-53.3899 113.124-46.4351 113.124-38.1548 113.124-30.6489 111.039-23.6196 106.869-17.0669 102.699-10.5142 96.8018-5.64429 89.1768-2.45728 81.5518 0.729736 72.0503 2.32324 60.6724 2.32324 44.1118 2.32324 31.3936-1.50415 22.5176-9.15893 13.6416-16.8137 8.33984-27.9683 6.6123-42.6226ZM164.833 0 164.833-108.835 125.963-108.835 125.963-130.995 230.062-130.995 230.062-108.835 191.282-108.835 191.282 0ZM246.975-130.995 295.316-130.995C306.217-130.995 314.527-130.161 320.246-128.493 327.931-126.229 334.513-122.208 339.994-116.43 345.474-110.652 349.644-103.578 352.503-95.2082 355.363-86.8386 356.792-76.5181 356.792-64.2466 356.792-53.4643 355.452-44.1714 352.771-36.3677 349.495-26.8364 344.819-19.1221 338.743-13.2246 334.156-8.75684 327.96-5.27197 320.157-2.77002 314.319-0.92334 306.515 0 296.746 0L246.975 0ZM273.424-108.835 273.424-22.0708 293.171-22.0708C300.558-22.0708 305.89-22.4878 309.166-23.3218 313.455-24.394 317.014-26.2109 319.844-28.7725 322.674-31.334 324.982-35.5486 326.769-41.4163 328.556-47.2839 329.45-55.2812 329.45-65.4082 329.45-75.5351 328.556-83.3091 326.769-88.73 324.982-94.1509 322.48-98.3804 319.263-101.418 316.046-104.457 311.966-106.512 307.021-107.584 303.328-108.418 296.09-108.835 285.308-108.835ZM463.223-48.1626 488.868-40.0312C484.936-25.7344 478.399-15.116 469.255-8.17602 460.111-1.23608 448.509 2.23389 434.451 2.23389 417.056 2.23389 402.759-3.70825 391.56-15.5925 380.361-27.4768 374.761-43.7246 374.761-64.3359 374.761-86.1387 380.391-103.072 391.649-115.135 402.908-127.197 417.711-133.229 436.059-133.229 452.083-133.229 465.1-128.493 475.107-119.021 481.064-113.422 485.532-105.38 488.511-94.8955L462.33-88.6406C460.781-95.4316 457.549-100.793 452.634-104.725 447.72-108.656 441.748-110.622 434.719-110.622 425.009-110.622 417.131-107.137 411.084-100.167 405.038-93.1977 402.015-81.9092 402.015-66.3018 402.015-49.7412 404.993-37.9463 410.95-30.917 416.907-23.8877 424.651-20.373 434.183-20.373 441.212-20.373 447.258-22.6069 452.322-27.0747 457.385-31.5425 461.019-38.5718 463.223-48.1626ZM541.239 0 541.239-108.835 502.369-108.835 502.369-130.995 606.468-130.995 606.468-108.835 567.688-108.835 567.688 0Z" transform="matrix(1 0 0 1 120.486 243)"/></g></g><text font-family="Arial,Arial_MSFontService,sans-serif" font-weight="700" font-size="183" transform="matrix(1 0 0 1 391.221 2172)">STDCT</text></g></svg>