<svg width="2615" height="919" xmlns="http://www.w3.org/2000/svg" xmlns:xlink="http://www.w3.org/1999/xlink" overflow="hidden"><defs><clipPath id="clip0"><rect x="309" y="716" width="2615" height="919"/></clipPath><clipPath id="clip1"><rect x="930" y="1158" width="498" height="476"/></clipPath><clipPath id="clip2"><rect x="930" y="1158" width="498" height="476"/></clipPath><clipPath id="clip3"><rect x="930" y="1158" width="498" height="476"/></clipPath><clipPath id="clip4"><rect x="1421" y="726" width="420" height="401"/></clipPath><clipPath id="clip5"><rect x="1421" y="726" width="420" height="401"/></clipPath><clipPath id="clip6"><rect x="1421" y="726" width="420" height="401"/></clipPath><clipPath id="clip7"><rect x="1844" y="1168" width="466" height="444"/></clipPath><clipPath id="clip8"><rect x="1844" y="1168" width="466" height="444"/></clipPath><clipPath id="clip9"><rect x="1844" y="1168" width="466" height="444"/></clipPath><clipPath id="clip10"><rect x="1109" y="907" width="126" height="121"/></clipPath><clipPath id="clip11"><rect x="1109" y="907" width="126" height="121"/></clipPath><clipPath id="clip12"><rect x="1109" y="907" width="126" height="121"/></clipPath><clipPath id="clip13"><rect x="1562" y="1224" width="142" height="135"/></clipPath><clipPath id="clip14"><rect x="1562" y="1224" width="142" height="135"/></clipPath><clipPath id="clip15"><rect x="1562" y="1224" width="142" height="135"/></clipPath><clipPath id="clip16"><rect x="2015" y="894" width="129" height="124"/></clipPath><clipPath id="clip17"><rect x="2015" y="894" width="129" height="124"/></clipPath><clipPath id="clip18"><rect x="2015" y="894" width="129" height="124"/></clipPath></defs><g clip-path="url(#clip0)" transform="translate(-309 -716)"><g clip-path="url(#clip1)"><g clip-path="url(#clip2)"><g clip-path="url(#clip3)"><path d="M415.625 380.99 277.083 380.99 277.083 361.198 242.448 361.198 242.448 316.667 376.042 316.667C386.972 316.667 395.833 307.805 395.833 296.875L395.833 247.396C395.815 241.69 393.32 236.274 388.995 232.552 393.32 228.83 395.815 223.414 395.833 217.708L395.833 168.229C395.815 162.524 393.32 157.107 388.995 153.385 393.32 149.664 395.815 144.247 395.833 138.542L395.833 89.0625C395.833 78.1321 386.972 69.2708 376.042 69.2708L98.9584 69.2708C88.0279 69.2708 79.1667 78.1321 79.1667 89.0625L79.1667 138.542C79.185 144.247 81.6802 149.664 86.0047 153.385 81.6802 157.107 79.185 162.524 79.1667 168.229L79.1667 217.708C79.185 223.414 81.6802 228.83 86.0047 232.552 81.6802 236.274 79.185 241.69 79.1667 247.396L79.1667 296.875C79.1667 307.805 88.0279 316.667 98.9584 316.667L232.552 316.667 232.552 361.198 197.917 361.198 197.917 380.99 59.375 380.99 59.375 390.885 197.917 390.885 197.917 410.677 277.083 410.677 277.083 390.885 415.625 390.885ZM89.0625 138.542 89.0625 89.0625C89.0625 83.597 93.4929 79.1667 98.9584 79.1667L376.042 79.1667C381.507 79.1667 385.938 83.597 385.938 89.0625L385.938 138.542C385.938 144.007 381.507 148.438 376.042 148.438L98.9584 148.438C93.4929 148.438 89.0625 144.007 89.0625 138.542ZM89.0625 217.708 89.0625 168.229C89.0625 162.764 93.4929 158.333 98.9584 158.333L376.042 158.333C381.507 158.333 385.938 162.764 385.938 168.229L385.938 217.708C385.938 223.174 381.507 227.604 376.042 227.604L98.9584 227.604C93.4929 227.604 89.0625 223.174 89.0625 217.708ZM89.0625 296.875 89.0625 247.396C89.0625 241.93 93.4929 237.5 98.9584 237.5L376.042 237.5C381.507 237.5 385.938 241.93 385.938 247.396L385.938 296.875C385.938 302.341 381.507 306.771 376.042 306.771L98.9584 306.771C93.4929 306.771 89.0625 302.341 89.0625 296.875ZM267.188 400.781 207.813 400.781 207.813 371.094 267.188 371.094Z" fill="#5D6184" transform="matrix(1.04632 0 0 1 931 1158)"/><path d="M138.542 113.802C138.542 119.267 134.111 123.698 128.646 123.698 123.181 123.698 118.75 119.267 118.75 113.802 118.75 108.337 123.181 103.906 128.646 103.906 134.111 103.906 138.542 108.337 138.542 113.802Z" fill="#5D6184" transform="matrix(1.04632 0 0 1 931 1158)"/><path d="M188.021 113.802C188.021 119.267 183.59 123.698 178.125 123.698 172.66 123.698 168.229 119.267 168.229 113.802 168.229 108.337 172.66 103.906 178.125 103.906 183.59 103.906 188.021 108.337 188.021 113.802Z" fill="#5D6184" transform="matrix(1.04632 0 0 1 931 1158)"/><path d="M237.5 113.802C237.5 119.267 233.07 123.698 227.604 123.698 222.139 123.698 217.708 119.267 217.708 113.802 217.708 108.337 222.139 103.906 227.604 103.906 233.07 103.906 237.5 108.337 237.5 113.802Z" fill="#5D6184" transform="matrix(1.04632 0 0 1 931 1158)"/><path d="M138.542 192.969C138.542 198.434 134.111 202.865 128.646 202.865 123.181 202.865 118.75 198.434 118.75 192.969 118.75 187.503 123.181 183.073 128.646 183.073 134.111 183.073 138.542 187.503 138.542 192.969Z" fill="#5D6184" transform="matrix(1.04632 0 0 1 931 1158)"/><path d="M188.021 192.969C188.021 198.434 183.59 202.865 178.125 202.865 172.66 202.865 168.229 198.434 168.229 192.969 168.229 187.503 172.66 183.073 178.125 183.073 183.59 183.073 188.021 187.503 188.021 192.969Z" fill="#5D6184" transform="matrix(1.04632 0 0 1 931 1158)"/><path d="M237.5 192.969C237.5 198.434 233.07 202.865 227.604 202.865 222.139 202.865 217.708 198.434 217.708 192.969 217.708 187.503 222.139 183.073 227.604 183.073 233.07 183.073 237.5 187.503 237.5 192.969Z" fill="#5D6184" transform="matrix(1.04632 0 0 1 931 1158)"/><path d="M138.542 272.135C138.542 277.601 134.111 282.031 128.646 282.031 123.181 282.031 118.75 277.601 118.75 272.135 118.75 266.67 123.181 262.24 128.646 262.24 134.111 262.24 138.542 266.67 138.542 272.135Z" fill="#5D6184" transform="matrix(1.04632 0 0 1 931 1158)"/><path d="M188.021 272.135C188.021 277.601 183.59 282.031 178.125 282.031 172.66 282.031 168.229 277.601 168.229 272.135 168.229 266.67 172.66 262.24 178.125 262.24 183.59 262.24 188.021 266.67 188.021 272.135Z" fill="#5D6184" transform="matrix(1.04632 0 0 1 931 1158)"/><path d="M237.5 272.135C237.5 277.601 233.07 282.031 227.604 282.031 222.139 282.031 217.708 277.601 217.708 272.135 217.708 266.67 222.139 262.24 227.604 262.24 233.07 262.24 237.5 266.67 237.5 272.135Z" fill="#5D6184" transform="matrix(1.04632 0 0 1 931 1158)"/></g></g></g><g clip-path="url(#clip4)"><g clip-path="url(#clip5)"><g clip-path="url(#clip6)"><path d="M207.563 45.8333C214.84 45.8033 221.597 49.6013 225.354 55.8333L297.95 175.096C297.979 175.146 297.95 175.171 297.904 175.158L256.063 164.425 253.979 172.5 310.229 186.925 324.658 130.675 316.583 128.592 305.596 171.483C305.596 171.538 305.546 171.542 305.517 171.483L232.475 51.4833C227.209 42.7642 217.748 37.4538 207.563 37.5L207.563 37.5C197.374 37.4598 187.914 42.7763 182.65 51.5L136.429 127.429 143.55 131.763 189.767 55.8333C193.547 49.6246 200.289 45.8346 207.558 45.8333Z" fill="#5D6184" transform="matrix(1.0475 0 0 1 1421 726)"/><path d="M43.2542 318.379C39.0998 311.727 39.0788 303.294 43.2 296.621L121.3 168.333C121.329 168.288 121.363 168.292 121.375 168.333L132.083 209.071 140.142 206.954 125.558 151.538 70.1417 166.121 72.2584 174.179 114.713 163.021C114.771 163.021 114.792 163.021 114.758 163.083L36.0792 292.288C30.5927 301.173 30.3409 312.331 35.4208 321.454 40.9133 330.978 51.1367 336.775 62.1292 336.6L158.942 336.6 158.942 328.267 61.8584 328.267C54.3642 328.411 47.3279 324.671 43.2542 318.379Z" fill="#5D6184" transform="matrix(1.0475 0 0 1 1421 726)"/><path d="M276.196 221.346C275.229 221.346 274.279 221.335 273.346 221.313 237.253 222.042 208.584 251.887 209.304 287.979 209.31 295.037 210.403 302.051 212.546 308.775 214.628 315.018 217.763 320.858 221.817 326.042L223.35 328.063 219.933 331.396C204.688 346.975 197.888 358.679 197.888 369.333 197.888 371.635 199.753 373.5 202.054 373.5 204.355 373.5 206.221 371.635 206.221 369.333 206.221 364.175 208.258 355.242 225.804 337.3L228.579 334.613C237.223 344.578 248.937 351.385 261.875 353.958 265.603 354.651 269.387 355 273.179 355L273.571 355C284.696 354.999 295.61 351.959 305.133 346.208 354.133 317.833 360.3 265.583 360.3 206.917 360.304 206.896 309.896 221.346 276.196 221.346ZM300.833 339.054C292.611 344.029 283.185 346.661 273.575 346.667L273.183 346.667C269.902 346.666 266.627 346.364 263.4 345.767 252.158 343.506 242.005 337.521 234.583 328.779L293.45 271.763C295.163 270.226 295.307 267.592 293.771 265.879 292.234 264.165 289.6 264.022 287.886 265.558 287.808 265.629 287.732 265.703 287.658 265.779L229.379 322.225 228.45 321C224.976 316.572 222.283 311.584 220.488 306.25 218.59 300.288 217.628 294.069 217.633 287.813 217.046 256.406 241.931 230.42 273.333 229.646 274.275 229.671 275.233 229.679 276.2 229.679 301.454 229.679 334.95 222.075 351.879 217.771 350.858 275.283 340.954 315.833 300.833 339.054Z" fill="#5D6184" transform="matrix(1.0475 0 0 1 1421 726)"/></g></g></g><g clip-path="url(#clip7)"><g clip-path="url(#clip8)"><g clip-path="url(#clip9)"><path d="M271.799 238.113C271.799 238.113 271.799 238.113 271.799 238.113 271.799 238.113 271.799 238.113 271.799 238.113 268.107 205.349 238.574 181.353 205.81 184.583 184.122 186.891 165.664 200.273 156.896 220.116L165.202 223.807C176.277 197.966 206.272 186.429 232.114 197.504 248.265 204.426 259.34 219.193 262.108 236.728 262.108 236.728 262.108 236.728 262.108 236.728 262.108 236.728 262.108 236.728 262.108 236.728L251.956 226.576 245.496 233.037 267.184 254.725 288.873 233.037 282.413 226.576 271.799 238.113Z" fill="#5D6184" transform="matrix(1.04966 0 0 1 1845 1168)"/><path d="M212.271 295.333C186.891 295.333 165.664 276.875 161.972 251.956 161.972 251.956 161.972 251.956 161.972 251.956 161.972 251.956 161.972 251.956 161.972 251.956L172.124 262.108 178.584 255.648 156.896 233.498 135.207 255.187 141.668 261.647 152.281 251.033C152.281 251.033 152.281 251.033 152.281 251.033 152.281 251.033 152.281 251.033 152.281 251.033 155.973 283.797 185.045 307.793 218.27 304.563 239.958 302.255 258.417 288.873 267.184 269.03L258.878 265.339C250.572 283.335 232.575 295.333 212.271 295.333Z" fill="#5D6184" transform="matrix(1.04966 0 0 1 1845 1168)"/><path d="M371.935 207.195C368.244 184.583 355.784 164.279 337.326 150.897 317.945 137.515 294.41 132.439 271.338 137.053 252.879 109.366 222.423 92.2917 189.198 92.2917 181.815 92.2917 173.97 93.2146 166.586 95.0604 127.363 105.213 97.8292 137.976 91.8302 178.123 65.5271 179.046 41.5313 191.505 25.8417 212.271 7.38334 238.113 4.15313 271.799 17.074 300.871 30.4563 329.481 58.1438 348.401 89.5229 350.247L123.209 350.247 314.715 350.708 363.629 350.708C403.315 349.786 434.694 316.56 433.771 276.875 432.848 241.343 406.545 212.271 371.935 207.195 371.935 207.195 371.935 207.195 371.935 207.195ZM424.542 282.413C422.234 314.715 395.931 340.556 363.629 341.479L314.715 341.479 123.209 341.018 89.9844 341.018C62.2969 339.172 37.3781 322.559 25.8417 297.179 13.8438 271.338 16.6125 240.881 33.225 217.808 47.5302 199.35 68.7573 188.275 92.2917 187.352L100.136 186.891 101.059 179.507C106.597 143.052 133.361 113.519 168.894 103.828 175.354 102.444 182.276 101.521 189.198 101.521 219.193 101.521 247.342 116.749 263.493 142.129L266.723 147.205 272.722 145.821C293.026 141.668 314.253 146.282 331.327 158.28 347.94 170.278 359.015 188.275 362.245 208.579L363.168 215.04 369.628 215.963C402.853 221.039 425.926 249.649 424.542 282.413L424.542 282.413Z" fill="#5D6184" transform="matrix(1.04966 0 0 1 1845 1168)"/></g></g></g><path d="M1156 1150.5C1156 1141.94 1163.39 1135 1172.5 1135 1181.61 1135 1189 1141.94 1189 1150.5 1189 1159.06 1181.61 1166 1172.5 1166 1163.39 1166 1156 1159.06 1156 1150.5Z" fill="#EB8F8A" fill-rule="evenodd"/><path d="M1161 1149C1161 1142.93 1166.15 1138 1172.5 1138 1178.85 1138 1184 1142.93 1184 1149 1184 1155.08 1178.85 1160 1172.5 1160 1166.15 1160 1161 1155.08 1161 1149Z" fill="#EB8F8A" fill-rule="evenodd"/><path d="M1241.84 898.798C1278.64 935.603 1277.21 996.707 1238.64 1035.28 1213.04 1060.88 1189.66 1088.69 1168.48 1118.71 1148.7 1089.65 1126.59 1062.9 1102.16 1038.47 1065.36 1001.67 1066.79 940.566 1105.36 901.995 1143.93 863.425 1205.03 861.993 1241.84 898.798Z" fill="#F3CAB6" fill-rule="evenodd"/><path d="M1103 968.5C1103 932.325 1133.89 903 1172 903 1210.11 903 1241 932.325 1241 968.5 1241 1004.67 1210.11 1034 1172 1034 1133.89 1034 1103 1004.67 1103 968.5Z" fill="#FFFFFF" fill-rule="evenodd"/><g clip-path="url(#clip10)"><g clip-path="url(#clip11)"><g clip-path="url(#clip12)"><path d="M59.5001 106.976C51.4428 106.976 44.3772 101.274 42.6418 93.4648 40.7824 85.5315 44.7491 77.4741 52.0626 74.0033L52.0626 19.4615C52.0626 15.3709 55.4095 12.024 59.5001 12.024 63.5908 12.024 66.9377 15.3709 66.9377 19.4615L66.9377 74.0033C74.2512 77.4741 78.0939 85.5315 76.3585 93.4648 74.4991 101.274 67.5575 106.852 59.5001 106.976L59.5001 106.976ZM74.3752 69.7887 74.3752 19.4615C74.3752 11.2802 67.6814 4.58647 59.5001 4.58647 51.3189 4.58647 44.6251 11.1563 44.6251 19.4615L44.6251 69.7887C36.072 76.2346 32.6011 87.3908 35.948 97.4315 39.2949 107.596 48.8397 114.414 59.5001 114.414 70.1606 114.414 79.7054 107.596 83.0523 97.4315 86.3992 87.3908 82.9283 76.2346 74.3752 69.7887Z" fill="#EB8F8A" transform="matrix(1.04202 0 0 1 1110 908)"/><path d="M61.9793 77.4741 61.9793 47.4762 57.021 47.4762 57.021 77.4741C50.823 78.7137 46.4845 84.5398 47.2282 90.8617 47.848 97.1836 53.1783 102.018 59.5001 102.018 65.822 102.018 71.1523 97.1836 71.772 90.8617 72.5158 84.5398 68.1772 78.7137 61.9793 77.4741Z" fill="#EB8F8A" transform="matrix(1.04202 0 0 1 1110 908)"/></g></g></g><path d="M1616 1475.5C1616 1466.94 1623.39 1460 1632.5 1460 1641.61 1460 1649 1466.94 1649 1475.5 1649 1484.06 1641.61 1491 1632.5 1491 1623.39 1491 1616 1484.06 1616 1475.5Z" fill="#44969B" fill-rule="evenodd"/><path d="M1700.87 1222.46C1737.67 1259.26 1736.24 1320.36 1697.67 1358.94 1672.07 1384.53 1648.68 1412.35 1627.51 1442.37 1607.72 1413.3 1585.62 1386.56 1561.19 1362.13 1524.38 1325.33 1525.82 1264.22 1564.39 1225.65 1602.96 1187.08 1664.06 1185.65 1700.87 1222.46Z" fill="#B1E5E0" fill-rule="evenodd"/><path d="M1562 1293.5C1562 1257.33 1592.89 1228 1631 1228 1669.11 1228 1700 1257.33 1700 1293.5 1700 1329.67 1669.11 1359 1631 1359 1592.89 1359 1562 1329.67 1562 1293.5Z" fill="#FFFFFF" fill-rule="evenodd"/><g clip-path="url(#clip13)"><g clip-path="url(#clip14)"><g clip-path="url(#clip15)"><path d="M119.39 65.0839C117.429 38.6103 96.3786 17.5643 69.9045 15.6093 55.0924 14.4997 40.495 19.6606 29.6718 29.8335 8.0843 49.9233 6.87018 83.7095 26.96 105.297 30.4067 109.001 34.3625 112.196 38.7084 114.786 46.9452 119.707 57.6114 117.019 62.5323 108.782 64.1417 106.088 64.9915 103.008 64.9911 99.8703 64.9911 94.3437 65.1936 91.5397 66.1949 88.8931 72.7328 88.4766 78.6064 84.7534 81.7733 79.0184L81.7733 79.0184C90.1559 64.3752 83.8827 50.5391 75.0753 36.0899 75.0753 36.0899 63.7058 48.2062 54.89 53.2208 45.8018 58.754 42.9198 70.6068 48.453 79.6951 48.4545 79.6978 48.4562 79.7006 48.4579 79.7033 49.9315 82.1089 51.9203 84.1579 54.2811 85.7023 56.155 77.6194 58.9718 69.7845 62.6736 62.3586 63.135 61.5043 64.2015 61.1857 65.0558 61.6471 65.9101 62.1085 66.2288 63.175 65.7674 64.0293 65.7407 64.0785 64.5552 66.3046 62.9633 70.2055 60.6576 76.3927 58.846 82.7529 57.545 89.2264 57.545 89.2433 57.3468 90.3359 57.2638 90.852L57.2638 90.852C56.898 92.9666 56.7262 95.1103 56.7505 97.2561L56.7505 97.2561C56.7505 103.356 54.8647 106.034 52.0241 107.644 49.2383 109.25 45.7991 109.21 43.0509 107.541 21.7193 94.8358 14.7266 67.2432 27.4322 45.9119 29.6166 42.2445 32.312 38.9071 35.4374 35.9999 44.5544 27.4305 56.8508 23.083 69.328 24.0173 94.0916 25.7699 112.746 47.2655 110.993 72.0291 110.638 77.0481 109.443 81.972 107.457 86.5953 101.191 82.8993 93.2193 83.9091 88.0733 89.0506L80.5358 96.5768 84.2989 100.34 78.2788 106.36C77.0574 107.633 77.0991 109.654 78.3716 110.876 79.6074 112.061 81.5585 112.061 82.7942 110.876L88.8144 104.855 94.8345 110.876 88.8144 116.896C87.5674 118.142 87.5672 120.164 88.8137 121.41 90.0602 122.657 92.0815 122.658 93.3284 121.411L99.35 115.391 103.112 119.154 110.638 111.628C115.48 106.782 116.688 99.3864 113.642 93.2511 118.096 84.5637 120.084 74.8219 119.39 65.0839Z" fill="#44969B" transform="matrix(1.05185 0 0 1 1562 1224)"/></g></g></g><path d="M2063 1145.5C2063 1136.94 2070.39 1130 2079.5 1130 2088.61 1130 2096 1136.94 2096 1145.5 2096 1154.06 2088.61 1161 2079.5 1161 2070.39 1161 2063 1154.06 2063 1145.5Z" fill="#F5911F" fill-rule="evenodd"/><path d="M2068 1145.5C2068 1139.15 2073.15 1134 2079.5 1134 2085.85 1134 2091 1139.15 2091 1145.5 2091 1151.85 2085.85 1157 2079.5 1157 2073.15 1157 2068 1151.85 2068 1145.5Z" fill="#F5911F" fill-rule="evenodd"/><path d="M2147.46 893.888C2184.26 930.693 2182.83 991.797 2144.26 1030.37 2118.66 1055.97 2095.28 1083.78 2074.1 1113.8 2054.32 1084.74 2032.21 1057.99 2007.78 1033.56 1970.98 996.76 1972.41 935.656 2010.98 897.085 2049.55 858.514 2110.65 857.083 2147.46 893.888Z" fill="#FFD966" fill-rule="evenodd"/><path d="M2009 963.5C2009 927.325 2039.89 898 2078 898 2116.11 898 2147 927.325 2147 963.5 2147 999.674 2116.11 1029 2078 1029 2039.89 1029 2009 999.674 2009 963.5Z" fill="#FFFFFF" fill-rule="evenodd"/><g clip-path="url(#clip16)"><g clip-path="url(#clip17)"><g clip-path="url(#clip18)"><path d="M8.96875 81.1993 8.96875 101.078 28.226 112.75 28.226 90.815 8.96875 79.148 8.96875 81.1993Z" fill="#F5911F" transform="matrix(1.04878 0 0 1 2015 894)"/><path d="M94.7741 112.75 114.031 101.078 114.031 79.1365 94.7741 90.8022 94.7741 112.75Z" fill="#F5911F" transform="matrix(1.04878 0 0 1 2015 894)"/><path d="M46.3339 37.6572C47.0229 37.3257 47.7781 37.1544 48.5427 37.1563 51.3732 37.1555 53.6684 39.4493 53.6692 42.2799 53.6698 44.2545 52.5358 46.0538 50.7542 46.9053L45.9111 49.2192 60.2572 57.9125 60.2572 35.9788 41 24.313 41 40.2005Z" fill="#F5911F" transform="matrix(1.04878 0 0 1 2015 894)"/><path d="M62.7428 35.966 62.7428 57.9125 77.0928 49.218 72.251 46.904C69.698 45.682 68.6189 42.6217 69.8409 40.0687 70.6917 38.2909 72.4865 37.1587 74.4573 37.1563 75.2226 37.1551 75.9782 37.3273 76.6675 37.6598L82 40.2056 82 24.3002Z" fill="#F5911F" transform="matrix(1.04878 0 0 1 2015 894)"/><path d="M70.7878 28.1888 73.1786 26.7359 82 21.393 61.5 8.96875 52.6786 14.3116 50.2878 15.7645 41 21.393 61.5 33.8173 70.7878 28.1888Z" fill="#F5911F" transform="matrix(1.04878 0 0 1 2015 894)"/><path d="M41.1474 81.5721 49.9688 76.2344 34.5938 66.9108 34.5938 72.6764C34.5938 75.5068 32.2992 77.8014 29.4688 77.8014 26.6384 77.8014 24.3438 75.5068 24.3438 72.6764L24.3438 66.9108 20.6474 69.1491 18.2565 70.5969 8.96875 76.2344 29.4688 88.6625 38.7566 83.025Z" fill="#F5911F" transform="matrix(1.04878 0 0 1 2015 894)"/><path d="M105.21 81.5721 114.031 76.2344 98.6563 66.9108 98.6563 72.6764C98.6563 75.5068 96.3617 77.8014 93.5313 77.8014 90.7009 77.8014 88.4063 75.5068 88.4063 72.6764L88.4063 66.9108 84.7099 69.1478 82.3191 70.5969 73.0313 76.2344 93.5313 88.6625 102.819 83.025Z" fill="#F5911F" transform="matrix(1.04878 0 0 1 2015 894)"/><path d="M73.0313 81.1993 73.0313 95.7696 76.7572 93.4826C79.1698 92.0019 82.3259 92.7574 83.8066 95.17 85.2873 97.5826 84.5318 100.739 82.1192 102.219L78.5407 104.422 92.2885 112.75 92.2885 90.815 73.0313 79.148Z" fill="#F5911F" transform="matrix(1.04878 0 0 1 2015 894)"/><path d="M40.7771 101.642C38.4129 100.085 37.7581 96.907 39.3144 94.5428 40.8541 92.2041 43.986 91.534 46.348 93.038L49.9688 95.3827 49.9688 79.1365 30.7116 90.8022 30.7116 112.75 44.7707 104.228Z" fill="#F5911F" transform="matrix(1.04878 0 0 1 2015 894)"/><path d="M61.4206 111.469C60.9264 111.469 60.4427 111.326 60.0279 111.058L42.1698 99.4904C40.9695 98.7406 40.6042 97.1598 41.354 95.9595 42.1038 94.7592 43.6846 94.394 44.8849 95.1438 44.9086 95.1585 44.9321 95.1737 44.9552 95.1892L61.4578 105.877 78.0974 95.6671C79.3038 94.927 80.8819 95.3051 81.6221 96.5115 82.3623 97.7179 81.9842 99.296 80.7777 100.036L62.7595 111.091C62.3565 111.338 61.8932 111.469 61.4206 111.469Z" fill="#F5911F" transform="matrix(1.04878 0 0 1 2015 894)"/><path d="M32.0313 72.67 32.0313 53.0092 49.6485 44.5939C50.9257 43.9837 51.4663 42.4535 50.856 41.1762 50.2458 39.8989 48.7156 39.3584 47.4383 39.9686L28.3656 49.0821C27.4745 49.5071 26.9069 50.4063 26.9063 51.3935L26.9063 72.67C26.9063 74.0853 28.0535 75.2325 29.4688 75.2325L29.4688 75.2325C30.884 75.2325 32.0313 74.0853 32.0313 72.67Z" fill="#F5911F" transform="matrix(1.04878 0 0 1 2015 894)"/><path d="M96.0938 72.67 96.0938 51.3935C96.0915 50.4084 95.5247 49.5119 94.6357 49.0873L75.5618 39.975C74.2845 39.3648 72.7543 39.9053 72.144 41.1826 71.5338 42.4599 72.0743 43.9901 73.3516 44.6003L90.9688 53.0092 90.9688 72.67C90.9688 74.0853 92.116 75.2325 93.5313 75.2325 94.9466 75.2325 96.0938 74.0853 96.0938 72.67Z" fill="#F5911F" transform="matrix(1.04878 0 0 1 2015 894)"/></g></g></g><text fill="#EB8F8A" font-family="Arial,Arial_MSFontService,sans-serif" font-weight="700" font-size="60" transform="matrix(1 0 0 1 972.752 831)">ASSESSMENT<tspan fill="#0AA8A7" font-size="60" x="449.692" y="753">OPTIMIZATION</tspan><tspan fill="#F5911F" font-size="60" x="901.147" y="0">INTEGRATION</tspan></text></g></svg>