<svg width="3394" height="2147" xmlns="http://www.w3.org/2000/svg" xmlns:xlink="http://www.w3.org/1999/xlink" overflow="hidden"><defs><clipPath id="clip0"><rect x="491" y="-67" width="3394" height="2147"/></clipPath><clipPath id="clip1"><rect x="541" y="469" width="1159" height="1159"/></clipPath><clipPath id="clip2"><rect x="541" y="469" width="1159" height="1159"/></clipPath><clipPath id="clip3"><rect x="541" y="469" width="1159" height="1159"/></clipPath><clipPath id="clip4"><rect x="1596" y="-68" width="976" height="978"/></clipPath><clipPath id="clip5"><rect x="1596" y="-68" width="976" height="978"/></clipPath><clipPath id="clip6"><rect x="1596" y="-68" width="976" height="978"/></clipPath><clipPath id="clip7"><rect x="2491" y="517" width="1084" height="1084"/></clipPath><clipPath id="clip8"><rect x="2491" y="517" width="1084" height="1084"/></clipPath><clipPath id="clip9"><rect x="2491" y="517" width="1084" height="1084"/></clipPath><clipPath id="clip10"><rect x="738" y="1194" width="291" height="293"/></clipPath><clipPath id="clip11"><rect x="738" y="1194" width="291" height="293"/></clipPath><clipPath id="clip12"><rect x="738" y="1194" width="291" height="293"/></clipPath><clipPath id="clip13"><rect x="1941" y="1173" width="331" height="331"/></clipPath><clipPath id="clip14"><rect x="1941" y="1173" width="331" height="331"/></clipPath><clipPath id="clip15"><rect x="1941" y="1173" width="331" height="331"/></clipPath><clipPath id="clip16"><rect x="3259" y="1173" width="301" height="303"/></clipPath><clipPath id="clip17"><rect x="3259" y="1173" width="301" height="303"/></clipPath><clipPath id="clip18"><rect x="3259" y="1173" width="301" height="303"/></clipPath></defs><g clip-path="url(#clip0)" transform="translate(-491 67)"><g clip-path="url(#clip1)"><g clip-path="url(#clip2)"><g clip-path="url(#clip3)"><path d="M1554.25 1398.81 1216.5 1398.81 1216.5 1350.56 1132.06 1350.56 1132.06 1242 1457.75 1242C1484.4 1242 1506 1220.4 1506 1193.75L1506 1073.13C1505.96 1059.22 1499.87 1046.01 1489.33 1036.94 1499.87 1027.86 1505.96 1014.66 1506 1000.75L1506 880.125C1505.96 866.216 1499.87 853.011 1489.33 843.937 1499.87 834.864 1505.96 821.659 1506 807.75L1506 687.125C1506 660.478 1484.4 638.875 1457.75 638.875L782.25 638.875C755.603 638.875 734 660.478 734 687.125L734 807.75C734.045 821.659 740.128 834.864 750.67 843.937 740.128 853.011 734.045 866.216 734 880.125L734 1000.75C734.045 1014.66 740.128 1027.86 750.67 1036.94 740.128 1046.01 734.045 1059.22 734 1073.13L734 1193.75C734 1220.4 755.603 1242 782.25 1242L1107.94 1242 1107.94 1350.56 1023.5 1350.56 1023.5 1398.81 685.75 1398.81 685.75 1422.94 1023.5 1422.94 1023.5 1471.19 1216.5 1471.19 1216.5 1422.94 1554.25 1422.94ZM758.125 807.75 758.125 687.125C758.125 673.801 768.926 663 782.25 663L1457.75 663C1471.07 663 1481.88 673.801 1481.88 687.125L1481.88 807.75C1481.88 821.074 1471.07 831.875 1457.75 831.875L782.25 831.875C768.926 831.875 758.125 821.074 758.125 807.75ZM758.125 1000.75 758.125 880.125C758.125 866.801 768.926 856 782.25 856L1457.75 856C1471.07 856 1481.88 866.801 1481.88 880.125L1481.88 1000.75C1481.88 1014.07 1471.07 1024.88 1457.75 1024.88L782.25 1024.88C768.926 1024.88 758.125 1014.07 758.125 1000.75ZM758.125 1193.75 758.125 1073.13C758.125 1059.8 768.926 1049 782.25 1049L1457.75 1049C1471.07 1049 1481.88 1059.8 1481.88 1073.13L1481.88 1193.75C1481.88 1207.07 1471.07 1217.88 1457.75 1217.88L782.25 1217.88C768.926 1217.88 758.125 1207.07 758.125 1193.75ZM1192.38 1447.06 1047.63 1447.06 1047.63 1374.69 1192.38 1374.69Z" fill="#5D6184"/><path d="M878.75 747.437C878.75 760.761 867.949 771.562 854.625 771.562 841.301 771.562 830.5 760.761 830.5 747.437 830.5 734.114 841.301 723.312 854.625 723.312 867.949 723.312 878.75 734.114 878.75 747.437Z" fill="#5D6184"/><path d="M999.375 747.437C999.375 760.761 988.574 771.562 975.25 771.562 961.926 771.562 951.125 760.761 951.125 747.437 951.125 734.114 961.926 723.312 975.25 723.312 988.574 723.312 999.375 734.114 999.375 747.437Z" fill="#5D6184"/><path d="M1120 747.437C1120 760.761 1109.2 771.562 1095.88 771.562 1082.55 771.562 1071.75 760.761 1071.75 747.437 1071.75 734.114 1082.55 723.312 1095.88 723.312 1109.2 723.312 1120 734.114 1120 747.437Z" fill="#5D6184"/><path d="M878.75 940.437C878.75 953.761 867.949 964.562 854.625 964.562 841.301 964.562 830.5 953.761 830.5 940.437 830.5 927.114 841.301 916.312 854.625 916.312 867.949 916.312 878.75 927.114 878.75 940.437Z" fill="#5D6184"/><path d="M999.375 940.437C999.375 953.761 988.574 964.562 975.25 964.562 961.926 964.562 951.125 953.761 951.125 940.437 951.125 927.114 961.926 916.312 975.25 916.312 988.574 916.312 999.375 927.114 999.375 940.437Z" fill="#5D6184"/><path d="M1120 940.437C1120 953.761 1109.2 964.562 1095.88 964.562 1082.55 964.562 1071.75 953.761 1071.75 940.437 1071.75 927.114 1082.55 916.312 1095.88 916.312 1109.2 916.312 1120 927.114 1120 940.437Z" fill="#5D6184"/><path d="M878.75 1133.44C878.75 1146.76 867.949 1157.56 854.625 1157.56 841.301 1157.56 830.5 1146.76 830.5 1133.44 830.5 1120.11 841.301 1109.31 854.625 1109.31 867.949 1109.31 878.75 1120.11 878.75 1133.44Z" fill="#5D6184"/><path d="M999.375 1133.44C999.375 1146.76 988.574 1157.56 975.25 1157.56 961.926 1157.56 951.125 1146.76 951.125 1133.44 951.125 1120.11 961.926 1109.31 975.25 1109.31 988.574 1109.31 999.375 1120.11 999.375 1133.44Z" fill="#5D6184"/><path d="M1120 1133.44C1120 1146.76 1109.2 1157.56 1095.88 1157.56 1082.55 1157.56 1071.75 1146.76 1071.75 1133.44 1071.75 1120.11 1082.55 1109.31 1095.88 1109.31 1109.2 1109.31 1120 1120.11 1120 1133.44Z" fill="#5D6184"/></g></g></g><g clip-path="url(#clip4)"><g clip-path="url(#clip5)"><g clip-path="url(#clip6)"><path d="M506.452 111.833C524.209 111.76 540.696 121.027 549.864 136.233L726.998 427.234C727.069 427.356 726.998 427.417 726.886 427.386L624.792 401.197 619.709 420.9 756.959 456.097 792.166 318.847 772.463 313.764 745.654 418.419C745.654 418.551 745.532 418.562 745.461 418.419L567.239 125.619C554.39 104.345 531.306 91.3874 506.452 91.5L506.452 91.5C481.592 91.402 458.51 104.374 445.666 125.66L332.887 310.927 350.262 321.5 463.031 136.233C472.254 121.084 488.706 111.836 506.442 111.833Z" fill="#5D6184" transform="matrix(1 0 0 1.00102 1596 -67)"/><path d="M105.54 776.845C95.4035 760.613 95.3522 740.037 105.408 723.755L295.972 410.733C296.043 410.621 296.124 410.632 296.155 410.733L322.283 510.133 341.946 504.968 306.362 369.751 171.146 405.335 176.31 424.997 279.898 397.771C280.041 397.771 280.092 397.771 280.01 397.923L88.0332 713.181C74.6462 734.862 74.0317 762.086 86.4268 784.348 99.8284 807.585 124.773 821.731 151.595 821.304L387.818 821.304 387.818 800.971 150.934 800.971C132.649 801.322 115.48 792.198 105.54 776.845Z" fill="#5D6184" transform="matrix(1 0 0 1.00102 1596 -67)"/><path d="M673.918 540.084C671.559 540.084 669.241 540.056 666.964 540.003 578.898 541.782 508.944 614.603 510.702 702.669 510.716 719.889 513.384 737.004 518.612 753.411 523.691 768.643 531.342 782.892 541.233 795.542L544.974 800.472 536.637 808.606C499.437 846.619 482.845 875.177 482.845 901.173 482.845 906.788 487.397 911.34 493.012 911.34 498.627 911.34 503.179 906.788 503.179 901.173 503.179 888.587 508.15 866.79 550.962 823.012L557.733 816.454C578.823 840.771 607.405 857.378 638.975 863.658 648.072 865.348 657.304 866.199 666.557 866.2L667.513 866.2C694.658 866.198 721.287 858.78 744.525 844.748 864.085 775.513 879.132 648.023 879.132 504.877 879.142 504.826 756.146 540.084 673.918 540.084ZM734.033 827.292C713.97 839.43 690.971 845.853 667.523 845.867L666.567 845.867C658.56 845.864 650.57 845.129 642.696 843.671 615.264 838.153 590.493 823.551 572.383 802.221L716.018 663.1C720.199 659.352 720.548 652.924 716.8 648.744 713.05 644.564 706.623 644.214 702.442 647.962 702.25 648.135 702.065 648.314 701.886 648.501L559.685 786.229 557.418 783.24C548.941 772.436 542.37 760.265 537.989 747.25 533.361 732.703 531.011 717.528 531.025 702.262 529.593 625.63 590.311 562.224 666.933 560.336 669.231 560.397 671.569 560.417 673.928 560.417 735.548 560.417 817.278 541.863 858.585 531.361 856.094 671.691 831.928 770.633 734.033 827.292Z" fill="#5D6184" transform="matrix(1 0 0 1.00102 1596 -67)"/></g></g></g><g clip-path="url(#clip7)"><g clip-path="url(#clip8)"><g clip-path="url(#clip9)"><path d="M3156.47 1099.11C3156.47 1099.11 3156.47 1099.11 3156.47 1099.11 3156.47 1099.11 3156.47 1099.11 3156.47 1099.11 3147.44 1019.02 3075.24 960.353 2995.14 968.25 2942.12 973.891 2897 1006.61 2875.56 1055.12L2895.87 1064.14C2922.94 1000.97 2996.27 972.763 3059.45 999.838 3098.93 1016.76 3126.01 1052.86 3132.77 1095.73 3132.77 1095.73 3132.77 1095.73 3132.77 1095.73 3132.77 1095.73 3132.77 1095.73 3132.77 1095.73L3107.96 1070.91 3092.16 1086.7 3145.18 1139.73 3198.21 1086.7 3182.41 1070.91 3156.47 1099.11Z" fill="#5D6184"/><path d="M3010.94 1239C2948.89 1239 2897 1193.88 2887.97 1132.96 2887.97 1132.96 2887.97 1132.96 2887.97 1132.96 2887.97 1132.96 2887.97 1132.96 2887.97 1132.96L2912.79 1157.78 2928.58 1141.98 2875.56 1087.83 2822.54 1140.85 2838.33 1156.65 2864.28 1130.7C2864.28 1130.7 2864.28 1130.7 2864.28 1130.7 2864.28 1130.7 2864.28 1130.7 2864.28 1130.7 2873.31 1210.8 2944.38 1269.46 3025.6 1261.56 3078.63 1255.92 3123.75 1223.21 3145.18 1174.7L3124.88 1165.67C3104.57 1209.67 3060.57 1239 3010.94 1239Z" fill="#5D6184"/><path d="M3401.27 1023.53C3392.24 968.25 3361.78 918.613 3316.66 885.897 3269.28 853.181 3211.74 840.772 3155.34 852.053 3110.21 784.366 3035.76 742.625 2954.53 742.625 2936.48 742.625 2917.3 744.881 2899.25 749.394 2803.36 774.213 2731.16 854.309 2716.5 952.456 2652.19 954.713 2593.53 985.172 2555.17 1035.94 2510.05 1099.11 2502.15 1181.47 2533.74 1252.54 2566.46 1322.48 2634.14 1368.73 2710.86 1373.25L2793.21 1373.25 3261.38 1374.38 3380.96 1374.38C3477.98 1372.12 3554.69 1290.89 3552.44 1193.88 3550.18 1107.01 3485.88 1035.94 3401.27 1023.53 3401.27 1023.53 3401.27 1023.53 3401.27 1023.53ZM3529.88 1207.41C3524.23 1286.38 3459.93 1349.56 3380.96 1351.81L3261.38 1351.81 2793.21 1350.68 2711.98 1350.68C2644.3 1346.17 2583.38 1305.56 2555.17 1243.51 2525.84 1180.34 2532.61 1105.88 2573.22 1049.48 2608.2 1004.35 2660.09 977.275 2717.62 975.019L2736.8 973.891 2739.06 955.841C2752.6 866.719 2818.03 794.519 2904.89 770.828 2920.69 767.444 2937.61 765.188 2954.53 765.188 3027.86 765.188 3096.67 802.416 3136.16 864.463L3144.06 876.872 3158.72 873.488C3208.36 863.334 3260.25 874.616 3301.99 903.947 3342.61 933.278 3369.68 977.275 3377.58 1026.91L3379.83 1042.71 3395.63 1044.96C3476.85 1057.37 3533.26 1127.32 3529.88 1207.41L3529.88 1207.41Z" fill="#5D6184"/></g></g></g><path d="M912 1784 2068.32 1787.03" stroke="#D9D9D9" stroke-width="10.3125" stroke-miterlimit="8" fill="none" fill-rule="evenodd"/><path d="M847 1787C847 1766.01 864.013 1749 885 1749 905.987 1749 923 1766.01 923 1787 923 1807.99 905.987 1825 885 1825 864.013 1825 847 1807.99 847 1787Z" fill="#EB8F8A" fill-rule="evenodd"/><path d="M858 1784C858 1769.09 870.088 1757 885 1757 899.912 1757 912 1769.09 912 1784 912 1798.91 899.912 1811 885 1811 870.088 1811 858 1798.91 858 1784Z" fill="#EB8F8A" fill-rule="evenodd"/><path d="M2145 1787 3371.53 1787" stroke="#D9D9D9" stroke-width="10.3125" stroke-miterlimit="8" fill="none" fill-rule="evenodd"/><path d="M2069 1787C2069 1766.01 2086.01 1749 2107 1749 2127.99 1749 2145 1766.01 2145 1787 2145 1807.99 2127.99 1825 2107 1825 2086.01 1825 2069 1807.99 2069 1787Z" fill="#44969B" fill-rule="evenodd"/><path d="M3371 1787C3371 1766.01 3388.01 1749 3409 1749 3429.99 1749 3447 1766.01 3447 1787 3447 1807.99 3429.99 1825 3409 1825 3388.01 1825 3371 1807.99 3371 1787Z" fill="#F5911F" fill-rule="evenodd"/><path d="M3382 1787C3382 1772.09 3394.31 1760 3409.5 1760 3424.69 1760 3437 1772.09 3437 1787 3437 1801.91 3424.69 1814 3409.5 1814 3394.31 1814 3382 1801.91 3382 1787Z" fill="#F5911F" fill-rule="evenodd"/><path d="M1045.92 1180.78C1135.82 1270.68 1135.82 1416.43 1045.92 1506.32 986.259 1565.99 932.002 1631.05 883.151 1701.53 834.299 1631.05 780.042 1565.99 720.38 1506.32 630.485 1416.43 630.485 1270.68 720.38 1180.78 810.276 1090.89 956.025 1090.89 1045.92 1180.78Z" fill="#F3CAB6" fill-rule="evenodd"/><path d="M723 1343.5C723 1254.86 794.858 1183 883.5 1183 972.142 1183 1044 1254.86 1044 1343.5 1044 1432.14 972.142 1504 883.5 1504 794.858 1504 723 1432.14 723 1343.5Z" fill="#FFFFFF" fill-rule="evenodd"/><path d="M2267.97 1180.78C2357.86 1270.68 2357.86 1416.43 2267.97 1506.32 2208.31 1565.99 2154.05 1631.05 2105.2 1701.53 2056.35 1631.05 2002.09 1565.99 1942.43 1506.32 1852.53 1416.43 1852.53 1270.68 1942.43 1180.78 2032.32 1090.89 2178.07 1090.89 2267.97 1180.78Z" fill="#B1E5E0" fill-rule="evenodd"/><path d="M1924 1343.5C1924 1254.86 1995.86 1183 2084.5 1183 2173.14 1183 2245 1254.86 2245 1343.5 2245 1432.14 2173.14 1504 2084.5 1504 1995.86 1504 1924 1432.14 1924 1343.5Z" fill="#FFFFFF" fill-rule="evenodd"/><path d="M3568.26 1180.78C3658.16 1270.68 3658.16 1416.43 3568.26 1506.32 3508.6 1565.99 3454.35 1631.05 3405.49 1701.53 3356.64 1631.05 3302.39 1565.99 3242.72 1506.32 3152.83 1416.43 3152.83 1270.68 3242.72 1180.78 3332.62 1090.89 3478.37 1090.89 3568.26 1180.78Z" fill="#FFD966" fill-rule="evenodd"/><path d="M3245 1343.5C3245 1254.86 3317.08 1183 3406 1183 3494.92 1183 3567 1254.86 3567 1343.5 3567 1432.14 3494.92 1504 3406 1504 3317.08 1504 3245 1432.14 3245 1343.5Z" fill="#FFFFFF" fill-rule="evenodd"/><g clip-path="url(#clip10)"><g clip-path="url(#clip11)"><g clip-path="url(#clip12)"><path d="M145 260.698C125.365 260.698 108.146 246.802 103.917 227.771 99.3855 208.438 109.052 188.802 126.875 180.344L126.875 47.4271C126.875 37.4583 135.031 29.3021 145 29.3021 154.969 29.3021 163.125 37.4583 163.125 47.4271L163.125 180.344C180.948 188.802 190.313 208.438 186.083 227.771 181.552 246.802 164.635 260.396 145 260.698L145 260.698ZM181.25 170.073 181.25 47.4271C181.25 27.4896 164.938 11.1771 145 11.1771 125.063 11.1771 108.75 27.1875 108.75 47.4271L108.75 170.073C87.9063 185.781 79.448 212.969 87.6042 237.438 95.7605 262.208 119.021 278.823 145 278.823 170.979 278.823 194.24 262.208 202.396 237.438 210.552 212.969 202.094 185.781 181.25 170.073Z" fill="#EB8F8A" transform="matrix(1 0 0 1.00345 738 1195)"/><path d="M151.042 188.802 151.042 115.698 138.958 115.698 138.958 188.802C123.854 191.823 113.281 206.021 115.094 221.427 116.604 236.833 129.594 248.615 145 248.615 160.406 248.615 173.396 236.833 174.906 221.427 176.719 206.021 166.146 191.823 151.042 188.802Z" fill="#EB8F8A" transform="matrix(1 0 0 1.00345 738 1195)"/></g></g></g><g clip-path="url(#clip13)"><g clip-path="url(#clip14)"><g clip-path="url(#clip15)"><path d="M2232.84 1333.09C2228.05 1268.38 2176.59 1216.93 2111.88 1212.16 2075.67 1209.44 2039.99 1222.06 2013.53 1246.93 1960.76 1296.03 1957.79 1378.62 2006.9 1431.39 2015.33 1440.45 2025 1448.26 2035.62 1454.59 2055.76 1466.62 2081.83 1460.05 2093.86 1439.91 2097.79 1433.33 2099.87 1425.8 2099.87 1418.13 2099.87 1404.62 2100.36 1397.76 2102.81 1391.29 2118.79 1390.28 2133.15 1381.18 2140.89 1367.16L2140.89 1367.16C2161.38 1331.36 2146.05 1297.54 2124.52 1262.22 2124.52 1262.22 2096.73 1291.84 2075.18 1304.1 2052.96 1317.62 2045.92 1346.59 2059.44 1368.81 2059.44 1368.82 2059.45 1368.82 2059.45 1368.83 2063.06 1374.71 2067.92 1379.72 2073.69 1383.49 2078.27 1363.74 2085.15 1344.58 2094.2 1326.43 2095.33 1324.34 2097.94 1323.57 2100.03 1324.69 2102.11 1325.82 2102.89 1328.43 2101.77 1330.52 2101.7 1330.64 2098.8 1336.08 2094.91 1345.61 2089.27 1360.74 2084.85 1376.29 2081.67 1392.11 2081.67 1392.15 2081.18 1394.82 2080.98 1396.08L2080.98 1396.08C2080.08 1401.25 2079.66 1406.49 2079.72 1411.74L2079.72 1411.74C2079.72 1426.65 2075.11 1433.19 2068.17 1437.13 2061.36 1441.06 2052.95 1440.96 2046.24 1436.88 1994.09 1405.82 1977 1338.37 2008.06 1286.23 2013.4 1277.26 2019.99 1269.11 2027.63 1262 2049.91 1241.05 2079.97 1230.43 2110.47 1232.71 2171 1236.99 2216.6 1289.54 2212.32 1350.07 2211.45 1362.34 2208.53 1374.38 2203.67 1385.68 2188.36 1376.64 2168.87 1379.11 2156.29 1391.68L2137.87 1410.08 2147.06 1419.28 2132.35 1433.99C2129.36 1437.1 2129.46 1442.04 2132.58 1445.03 2135.6 1447.93 2140.37 1447.93 2143.39 1445.03L2158.1 1430.31 2172.82 1445.03 2158.1 1459.75C2155.05 1462.79 2155.05 1467.73 2158.1 1470.78 2161.15 1473.83 2166.09 1473.83 2169.14 1470.78L2183.86 1456.07 2193.05 1465.27 2211.45 1446.87C2223.28 1435.02 2226.24 1416.94 2218.79 1401.95 2229.68 1380.71 2234.54 1356.9 2232.84 1333.09Z" fill="#44969B"/></g></g></g><g clip-path="url(#clip16)"><g clip-path="url(#clip17)"><g clip-path="url(#clip18)"><path d="M21.9479 198.707 21.9479 247.353 69.0732 275.916 69.0732 222.238 21.9479 193.687 21.9479 198.707Z" fill="#F5911F" transform="matrix(1 0 0 1 3259 1174)"/><path d="M231.927 275.916 279.052 247.353 279.052 193.659 231.927 222.207 231.927 275.916Z" fill="#F5911F" transform="matrix(1 0 0 1 3259 1174)"/><path d="M113.386 92.153C115.072 91.3415 116.92 90.9223 118.791 90.927 125.718 90.9251 131.335 96.5385 131.337 103.465 131.338 108.298 128.563 112.701 124.203 114.784L112.351 120.447 147.459 141.721 147.459 88.0456 100.333 59.4976 100.333 98.3768Z" fill="#F5911F" transform="matrix(1 0 0 1 3259 1174)"/><path d="M153.541 88.0142 153.541 141.721 188.658 120.444 176.809 114.781C170.562 111.791 167.921 104.302 170.911 98.0541 172.993 93.7037 177.385 90.933 182.208 90.927 184.081 90.9242 185.93 91.3456 187.617 92.1592L200.667 98.3893 200.667 59.4663Z" fill="#F5911F" transform="matrix(1 0 0 1 3259 1174)"/><path d="M173.229 68.9822 179.079 65.4267 200.667 52.352 150.5 21.9479 128.913 35.0226 123.062 38.5781 100.333 52.352 150.5 82.7561 173.229 68.9822Z" fill="#F5911F" transform="matrix(1 0 0 1 3259 1174)"/><path d="M100.694 199.619 122.281 186.557 84.6562 163.741 84.6562 177.85C84.6562 184.777 79.041 190.392 72.1145 190.392 65.1881 190.392 59.5729 184.777 59.5729 177.85L59.5729 163.741 50.5272 169.218 44.6765 172.761 21.9479 186.557 72.1145 216.971 94.8431 203.175Z" fill="#F5911F" transform="matrix(1 0 0 1 3259 1174)"/><path d="M257.465 199.619 279.052 186.557 241.427 163.741 241.427 177.85C241.427 184.777 235.812 190.392 228.885 190.392 221.959 190.392 216.344 184.777 216.344 177.85L216.344 163.741 207.298 169.215 201.447 172.761 178.719 186.557 228.885 216.971 251.614 203.175Z" fill="#F5911F" transform="matrix(1 0 0 1 3259 1174)"/><path d="M178.719 198.707 178.719 234.363 187.836 228.766C193.74 225.143 201.464 226.991 205.087 232.895 208.711 238.799 206.862 246.523 200.958 250.146L192.201 255.536 225.844 275.916 225.844 222.238 178.719 193.687Z" fill="#F5911F" transform="matrix(1 0 0 1 3259 1174)"/><path d="M99.7877 248.732C94.0022 244.924 92.3997 237.146 96.2083 231.361 99.9761 225.637 107.64 223.997 113.42 227.678L122.281 233.416 122.281 193.659 75.1559 222.207 75.1559 275.916 109.561 255.063Z" fill="#F5911F" transform="matrix(1 0 0 1 3259 1174)"/><path d="M150.305 272.781C149.096 272.781 147.913 272.432 146.897 271.775L103.196 243.468C100.259 241.633 99.3647 237.765 101.2 234.827 103.034 231.89 106.903 230.996 109.84 232.831 109.898 232.867 109.956 232.905 110.012 232.942L150.396 259.098 191.116 234.112C194.068 232.301 197.93 233.226 199.742 236.178 201.553 239.131 200.628 242.992 197.675 244.804L153.582 271.856C152.596 272.461 151.462 272.781 150.305 272.781Z" fill="#F5911F" transform="matrix(1 0 0 1 3259 1174)"/><path d="M78.3854 177.834 78.3854 129.721 121.497 109.128C124.623 107.635 125.946 103.89 124.452 100.764 122.959 97.6387 119.214 96.3159 116.089 97.8092L69.4149 120.111C67.2343 121.151 65.8453 123.352 65.8437 125.768L65.8437 177.834C65.8437 181.298 68.6511 184.105 72.1145 184.105L72.1145 184.105C75.5779 184.105 78.3854 181.298 78.3854 177.834Z" fill="#F5911F" transform="matrix(1 0 0 1 3259 1174)"/><path d="M235.156 177.834 235.156 125.768C235.15 123.357 233.763 121.163 231.588 120.124L184.911 97.8249C181.785 96.3315 178.041 97.6544 176.547 100.78 175.054 103.906 176.377 107.65 179.502 109.144L222.614 129.721 222.614 177.834C222.614 181.298 225.422 184.105 228.885 184.105 232.349 184.105 235.156 181.298 235.156 177.834Z" fill="#F5911F" transform="matrix(1 0 0 1 3259 1174)"/></g></g></g><text fill="#EB8F8A" font-family="Arial,Arial_MSFontService,sans-serif" font-weight="700" font-size="110" transform="matrix(1 0 0 1 557.431 1989)">ASSESSMENT<tspan fill="#0AA8A7" font-size="110" x="1184.79" y="-6">OPTIMIZATION</tspan><tspan fill="#F5911F" font-size="110" x="2503.87" y="-6">INTEGRATIO</tspan><tspan fill="#F5911F" font-size="110" x="3181.63" y="-6">N</tspan></text></g></svg>