<svg width="7066" height="1009" xmlns="http://www.w3.org/2000/svg" xmlns:xlink="http://www.w3.org/1999/xlink" overflow="hidden"><defs><filter id="fx0" x="-10%" y="-10%" width="120%" height="120%" filterUnits="userSpaceOnUse" primitiveUnits="userSpaceOnUse"><feComponentTransfer color-interpolation-filters="sRGB"><feFuncR type="discrete" tableValues="0 0"/><feFuncG type="discrete" tableValues="0 0"/><feFuncB type="discrete" tableValues="0 0"/><feFuncA type="linear" slope="0.4" intercept="0"/></feComponentTransfer><feGaussianBlur stdDeviation="6.11111 6.11111"/></filter><filter id="fx1" x="-10%" y="-10%" width="120%" height="120%" filterUnits="userSpaceOnUse" primitiveUnits="userSpaceOnUse"><feComponentTransfer color-interpolation-filters="sRGB"><feFuncR type="discrete" tableValues="0 0"/><feFuncG type="discrete" tableValues="0 0"/><feFuncB type="discrete" tableValues="0 0"/><feFuncA type="linear" slope="0.4" intercept="0"/></feComponentTransfer><feGaussianBlur stdDeviation="6.11111 6.11111"/></filter><filter id="fx2" x="-10%" y="-10%" width="120%" height="120%" filterUnits="userSpaceOnUse" primitiveUnits="userSpaceOnUse"><feComponentTransfer color-interpolation-filters="sRGB"><feFuncR type="discrete" tableValues="0 0"/><feFuncG type="discrete" tableValues="0 0"/><feFuncB type="discrete" tableValues="0 0"/><feFuncA type="linear" slope="0.4" intercept="0"/></feComponentTransfer><feGaussianBlur stdDeviation="6.11111 6.11111"/></filter><filter id="fx3" x="-10%" y="-10%" width="120%" height="120%" filterUnits="userSpaceOnUse" primitiveUnits="userSpaceOnUse"><feComponentTransfer color-interpolation-filters="sRGB"><feFuncR type="discrete" tableValues="0 0"/><feFuncG type="discrete" tableValues="0 0"/><feFuncB type="discrete" tableValues="0 0"/><feFuncA type="linear" slope="0.4" intercept="0"/></feComponentTransfer><feGaussianBlur stdDeviation="6.11111 6.11111"/></filter><filter id="fx4" x="-10%" y="-10%" width="120%" height="120%" filterUnits="userSpaceOnUse" primitiveUnits="userSpaceOnUse"><feComponentTransfer color-interpolation-filters="sRGB"><feFuncR type="discrete" tableValues="0 0"/><feFuncG type="discrete" tableValues="0 0"/><feFuncB type="discrete" tableValues="0 0"/><feFuncA type="linear" slope="0.4" intercept="0"/></feComponentTransfer><feGaussianBlur stdDeviation="6.11111 6.11111"/></filter><clipPath id="clip5"><rect x="-1385" y="0" width="7066" height="1009"/></clipPath><clipPath id="clip6"><path d="M1219.5 51.5001C1137.83 51.5001 1069.69 109.43 1053.93 186.441L1050.5 220.5 1050.5 220.5 1050.5 220.5 1050.5 220.5 1053.93 254.559C1069.69 331.57 1137.83 389.5 1219.5 389.5L1238.5 389.5C1331.84 389.5 1407.5 313.836 1407.5 220.5L1407.5 220.5C1407.5 127.164 1331.84 51.5001 1238.5 51.5001ZM-1385 1.50353e-05 5681 1.50353e-05 5681 1009-1385 1009Z" fill-rule="evenodd" clip-rule="evenodd"/></clipPath><clipPath id="clip7"><rect x="-3" y="-3" width="424" height="406"/></clipPath><clipPath id="clip8"><rect x="0" y="0" width="418" height="399"/></clipPath><clipPath id="clip9"><rect x="1067" y="53" width="330" height="331"/></clipPath><clipPath id="clip10"><rect x="1067" y="53" width="330" height="331"/></clipPath><clipPath id="clip11"><rect x="1067" y="53" width="330" height="331"/></clipPath><clipPath id="clip12"><path d="M338.5 43.5002C256.831 43.5002 188.692 101.43 172.934 178.441L169.5 212.5 169.5 212.5 169.5 212.5 169.5 212.5 172.934 246.559C188.692 323.57 256.831 381.5 338.5 381.5L357.5 381.5C450.836 381.5 526.5 305.837 526.5 212.5L526.501 212.5C526.501 119.164 450.837 43.5002 357.501 43.5002ZM-1385 1.50353e-05 5681 1.50353e-05 5681 1009-1385 1009Z" fill-rule="evenodd" clip-rule="evenodd"/></clipPath><clipPath id="clip13"><rect x="-3" y="-3" width="424" height="406"/></clipPath><clipPath id="clip14"><rect x="0" y="0" width="418" height="399"/></clipPath><clipPath id="clip15"><rect x="202" y="60" width="303" height="305"/></clipPath><clipPath id="clip16"><rect x="202" y="60" width="303" height="305"/></clipPath><clipPath id="clip17"><rect x="202" y="60" width="303" height="305"/></clipPath><clipPath id="clip18"><path d="M2100.5 46.4999C2018.83 46.4999 1950.69 104.43 1934.93 181.44L1931.5 215.5 1931.5 215.499 1931.5 215.5 1931.5 215.5 1934.93 249.559C1950.69 326.569 2018.83 384.499 2100.5 384.499L2119.5 384.5C2212.84 384.5 2288.5 308.836 2288.5 215.5L2288.5 215.5C2288.5 122.164 2212.84 46.4999 2119.5 46.4999ZM-1385 1.50353e-05 5681 1.50353e-05 5681 1009-1385 1009Z" fill-rule="evenodd" clip-rule="evenodd"/></clipPath><clipPath id="clip19"><rect x="-3" y="-3" width="424" height="406"/></clipPath><clipPath id="clip20"><rect x="0" y="0" width="418" height="399"/></clipPath><clipPath id="clip21"><rect x="1945" y="51" width="323" height="321"/></clipPath><clipPath id="clip22"><rect x="1945" y="51" width="323" height="321"/></clipPath><clipPath id="clip23"><rect x="1945" y="51" width="323" height="321"/></clipPath><clipPath id="clip24"><path d="M2981.5 61.5C2899.83 61.5 2831.69 119.43 2815.93 196.441L2812.5 230.5 2812.5 230.5 2812.5 230.5 2812.5 230.5 2815.93 264.559C2831.69 341.569 2899.83 399.5 2981.5 399.5L3000.5 399.5C3093.84 399.5 3169.5 323.836 3169.5 230.5L3169.5 230.5C3169.5 137.164 3093.84 61.5 3000.5 61.5ZM-1385 1.50353e-05 5681 1.50353e-05 5681 1009-1385 1009Z" fill-rule="evenodd" clip-rule="evenodd"/></clipPath><clipPath id="clip25"><rect x="-3" y="-3" width="424" height="406"/></clipPath><clipPath id="clip26"><rect x="0" y="0" width="418" height="399"/></clipPath><clipPath id="clip27"><rect x="2829" y="70" width="306" height="308"/></clipPath><clipPath id="clip28"><rect x="2829" y="70" width="306" height="308"/></clipPath><clipPath id="clip29"><rect x="2829" y="70" width="306" height="308"/></clipPath><clipPath id="clip30"><path d="M3862.5 43.5002C3780.83 43.5002 3712.69 101.43 3696.93 178.441L3693.5 212.5 3693.5 212.5 3693.5 212.5 3693.5 212.5 3696.93 246.559C3712.69 323.57 3780.83 381.5 3862.5 381.5L3881.5 381.5C3974.84 381.5 4050.5 305.836 4050.5 212.5L4050.5 212.5C4050.5 119.164 3974.84 43.5002 3881.5 43.5002ZM-1385 1.50353e-05 5681 1.50353e-05 5681 1009-1385 1009Z" fill-rule="evenodd" clip-rule="evenodd"/></clipPath><clipPath id="clip31"><rect x="-3" y="-3" width="424" height="406"/></clipPath><clipPath id="clip32"><rect x="0" y="0" width="418" height="399"/></clipPath><clipPath id="clip33"><rect x="3720" y="62" width="292" height="293"/></clipPath><clipPath id="clip34"><rect x="3720" y="62" width="292" height="293"/></clipPath><clipPath id="clip35"><rect x="3720" y="62" width="292" height="293"/></clipPath></defs><g clip-path="url(#clip5)" transform="translate(1385 0)"><g clip-path="url(#clip6)"><g clip-path="url(#clip7)" filter="url(#fx0)" transform="translate(1030 31)"><g clip-path="url(#clip8)"><path d="M30.2228 199.223C30.2228 105.887 105.887 30.2228 199.223 30.2228L218.223 30.2228C311.559 30.2228 387.223 105.887 387.223 199.223L387.223 199.223C387.223 292.559 311.559 368.223 218.223 368.223L199.223 368.223C105.887 368.223 30.2228 292.559 30.2228 199.223Z" stroke="#FFFFFF" stroke-width="21" stroke-miterlimit="8" fill="#69B4FF" fill-rule="evenodd"/></g></g></g><path d="M1050.5 220.5C1050.5 127.164 1126.16 51.5001 1219.5 51.5001L1238.5 51.5001C1331.84 51.5001 1407.5 127.164 1407.5 220.5L1407.5 220.5C1407.5 313.836 1331.84 389.5 1238.5 389.5L1219.5 389.5C1126.16 389.5 1050.5 313.836 1050.5 220.5Z" stroke="#FFFFFF" stroke-width="20.625" stroke-miterlimit="8" fill="#69B4FF" fill-rule="evenodd"/><g clip-path="url(#clip9)"><g clip-path="url(#clip10)"><g clip-path="url(#clip11)"><path d="M1358.84 213.094C1354.05 148.381 1302.59 96.935 1237.88 92.1562 1201.67 89.4437 1165.99 102.059 1139.53 126.927 1086.76 176.035 1083.79 258.624 1132.9 311.393 1141.33 320.447 1151 328.257 1161.62 334.589 1181.76 346.618 1207.83 340.047 1219.86 319.913 1223.79 313.327 1225.87 305.799 1225.87 298.128 1225.87 284.618 1226.36 277.764 1228.81 271.295 1244.79 270.276 1259.15 261.175 1266.89 247.157L1266.89 247.157C1287.38 211.362 1272.05 177.54 1250.52 142.22 1250.52 142.22 1222.73 171.837 1201.18 184.096 1178.96 197.621 1171.92 226.595 1185.44 248.811 1185.44 248.817 1185.45 248.824 1185.45 248.831 1189.05 254.711 1193.92 259.72 1199.69 263.495 1204.27 243.737 1211.15 224.585 1220.2 206.432 1221.33 204.344 1223.94 203.565 1226.03 204.693 1228.11 205.821 1228.89 208.428 1227.77 210.516 1227.7 210.637 1224.8 216.078 1220.91 225.614 1215.27 240.738 1210.85 256.285 1207.67 272.109 1207.67 272.151 1207.18 274.822 1206.98 276.083L1206.98 276.083C1206.08 281.252 1205.66 286.492 1205.72 291.737L1205.72 291.737C1205.72 306.649 1201.11 313.194 1194.17 317.13 1187.36 321.056 1178.95 320.959 1172.24 316.879 1120.09 285.821 1103 218.373 1134.06 166.229 1139.4 157.265 1145.99 149.106 1153.63 142 1175.91 121.053 1205.97 110.425 1236.47 112.709 1297 116.993 1342.6 169.538 1338.32 230.071 1337.45 242.34 1334.53 254.376 1329.67 265.678 1314.36 256.643 1294.87 259.111 1282.29 271.68L1263.87 290.077 1273.06 299.276 1258.35 313.992C1255.36 317.102 1255.46 322.044 1258.58 325.03 1261.6 327.928 1266.37 327.928 1269.39 325.03L1284.1 310.314 1298.82 325.03 1284.1 339.746C1281.05 342.793 1281.05 347.734 1284.1 350.782 1287.15 353.83 1292.09 353.83 1295.14 350.783L1309.86 336.067 1319.05 345.266 1337.45 326.869C1349.28 315.023 1352.24 296.945 1344.79 281.947 1355.68 260.712 1360.54 236.898 1358.84 213.094Z" fill="#FFFFFF"/></g></g></g><g clip-path="url(#clip12)"><g clip-path="url(#clip13)" filter="url(#fx1)" transform="translate(149 23)"><g clip-path="url(#clip14)"><path d="M30.2227 199.223C30.2227 105.887 105.887 30.2229 199.223 30.2229L218.223 30.2229C311.559 30.2229 387.223 105.887 387.223 199.223L387.223 199.223C387.223 292.559 311.559 368.223 218.223 368.223L199.223 368.223C105.887 368.223 30.2227 292.559 30.2227 199.223Z" stroke="#FFFFFF" stroke-width="21" stroke-miterlimit="8" fill="#52C9BD" fill-rule="evenodd"/></g></g></g><path d="M169.5 212.5C169.5 119.164 245.164 43.5002 338.5 43.5002L357.501 43.5002C450.837 43.5002 526.501 119.164 526.501 212.5L526.5 212.5C526.5 305.836 450.836 381.5 357.5 381.5L338.5 381.5C245.164 381.5 169.5 305.836 169.5 212.5Z" stroke="#FFFFFF" stroke-width="20.625" stroke-miterlimit="8" fill="#52C9BD" fill-rule="evenodd"/><g clip-path="url(#clip15)"><g clip-path="url(#clip16)"><g clip-path="url(#clip17)"><path d="M129.406 205.156 31.5625 205.156 31.5625 91.5312 117.981 91.5312 125.682 72.5937 25.25 72.5937C18.2774 72.5937 12.625 78.2462 12.625 85.2187L12.625 211.469C12.625 218.441 18.2774 224.094 25.25 224.094L129.406 224.094Z" fill="#FFFFFF" transform="matrix(1 0 0 1 202 60.9998)"/><path d="M277.75 119.937 265.125 119.937 265.125 85.2187C265.125 78.2462 259.472 72.5937 252.5 72.5937L160.969 72.5937 160.969 91.5312 246.187 91.5312 246.187 205.156 176.75 205.156 168.386 224.094 252.5 224.094C259.472 224.094 265.125 218.441 265.125 211.469L265.125 176.75 277.75 176.75C284.722 176.75 290.375 171.097 290.375 164.125L290.375 132.562C290.375 125.59 284.722 119.937 277.75 119.937Z" fill="#FFFFFF" transform="matrix(1 0 0 1 202 60.9998)"/><path d="M148.344 145.187 148.344 50.5 96.8653 176.655 142.031 176.75 142.031 252.5 189.375 145.187 148.344 145.187Z" fill="#FFFFFF" transform="matrix(1 0 0 1 202 60.9998)"/></g></g></g><g clip-path="url(#clip18)"><g clip-path="url(#clip19)" filter="url(#fx2)" transform="translate(1911 26)"><g clip-path="url(#clip20)"><path d="M30.2228 199.223C30.2228 105.886 105.887 30.2226 199.223 30.2226L218.223 30.2226C311.559 30.2226 387.223 105.886 387.223 199.223L387.223 199.223C387.223 292.559 311.559 368.223 218.223 368.223L199.223 368.222C105.887 368.222 30.2228 292.558 30.2228 199.222Z" stroke="#FFFFFF" stroke-width="21" stroke-miterlimit="8" fill="#F86060" fill-rule="evenodd"/></g></g></g><path d="M1931.5 215.5C1931.5 122.164 2007.16 46.4999 2100.5 46.4999L2119.5 46.4999C2212.84 46.4999 2288.5 122.164 2288.5 215.5L2288.5 215.5C2288.5 308.836 2212.84 384.5 2119.5 384.5L2100.5 384.499C2007.16 384.499 1931.5 308.836 1931.5 215.499Z" stroke="#FFFFFF" stroke-width="20.625" stroke-miterlimit="8" fill="#F86060" fill-rule="evenodd"/><g clip-path="url(#clip21)"><g clip-path="url(#clip22)"><g clip-path="url(#clip23)"><path d="M183.353 103.333 167.353 103.333 160.02 94.1667 160.02 66.6667 193.353 66.6667 193.353 46.6667 167.353 46.6667 156.687 33.3333 130.02 33.3333 119.353 46.6667 93.3533 46.6667 93.3533 66.6667 126.687 66.6667 126.687 94.1667 119.353 103.333 53.3533 103.333 53.3533 156.667 183.353 156.667C199.914 156.685 213.335 170.106 213.353 186.667L213.353 193.333 266.687 193.333 266.687 186.667C266.635 140.664 229.356 103.385 183.353 103.333Z" fill="#FFFFFF" transform="matrix(1.00313 0 0 1 1946 51.9999)"/><path d="M217.853 263.613C217.701 276.171 227.758 286.475 240.316 286.627 252.874 286.779 263.178 276.722 263.33 264.164 263.332 263.98 263.332 263.797 263.33 263.613 263.333 248.977 240.593 216.667 240.593 216.667 240.593 216.667 217.853 249.07 217.853 263.613Z" fill="#FFFFFF" transform="matrix(1.00313 0 0 1 1946 51.9999)"/></g></g></g><g clip-path="url(#clip24)"><g clip-path="url(#clip25)" filter="url(#fx3)" transform="translate(2792 41)"><g clip-path="url(#clip26)"><path d="M30.2229 199.223C30.2229 105.887 105.887 30.2227 199.223 30.2227L218.223 30.2227C311.559 30.2227 387.223 105.887 387.223 199.223L387.223 199.223C387.223 292.559 311.559 368.223 218.223 368.223L199.223 368.222C105.887 368.222 30.2229 292.558 30.2229 199.222Z" stroke="#FFFFFF" stroke-width="21" stroke-miterlimit="8" fill="#404040" fill-rule="evenodd"/></g></g></g><path d="M2812.5 230.5C2812.5 137.164 2888.16 61.5 2981.5 61.5L3000.5 61.5C3093.84 61.5 3169.5 137.164 3169.5 230.5L3169.5 230.5C3169.5 323.836 3093.84 399.5 3000.5 399.5L2981.5 399.5C2888.16 399.5 2812.5 323.836 2812.5 230.5Z" stroke="#FFFFFF" stroke-width="20.625" stroke-miterlimit="8" fill="#404040" fill-rule="evenodd"/><g clip-path="url(#clip27)"><g clip-path="url(#clip28)"><g clip-path="url(#clip29)"><path d="M76.5 86.0625 92.9475 134.353C82.6442 141.113 79.7719 154.946 86.532 165.249 93.2917 175.552 107.124 178.424 117.427 171.664 123.716 167.538 127.503 160.521 127.5 153 127.487 150.129 126.936 147.285 125.874 144.617L158.865 119.914C162.7 122.762 167.348 124.304 172.125 124.312L172.444 124.312 193.896 192.493C184.02 199.863 181.989 213.844 189.359 223.72 196.729 233.596 210.71 235.627 220.585 228.257 230.461 220.886 232.493 206.906 225.122 197.03 220.899 191.371 214.248 188.046 207.187 188.062L205.881 188.062 184.62 120.487C194.837 113.599 197.536 99.7314 190.648 89.5139 183.759 79.2964 169.891 76.5978 159.674 83.4863 151.147 89.235 147.654 100.066 151.215 109.714L117.937 134.672C114.194 132.073 109.745 130.682 105.187 130.687L105.187 130.687 88.6762 82.4287C98.9923 75.6884 101.891 61.8614 95.1504 51.5454 88.4101 41.2293 74.583 38.331 64.267 45.0712 53.951 51.8118 51.0526 65.6386 57.7929 75.9546 61.9191 82.2697 68.9564 86.072 76.5 86.0625Z" fill="#FFFFFF" transform="matrix(1 0 0 1.00327 2829 70.0001)"/><path d="M245.437 245.437 44.625 245.437 44.625 264.562 264.562 264.562 264.562 41.4375 245.437 41.4375 245.437 245.437Z" fill="#FFFFFF" transform="matrix(1 0 0 1.00327 2829 70.0001)"/></g></g></g><g clip-path="url(#clip30)"><g clip-path="url(#clip31)" filter="url(#fx4)" transform="translate(3673 23)"><g clip-path="url(#clip32)"><path d="M30.2229 199.223C30.2229 105.887 105.887 30.2229 199.223 30.2229L218.223 30.2229C311.559 30.2229 387.223 105.887 387.223 199.223L387.223 199.223C387.223 292.559 311.559 368.223 218.223 368.223L199.223 368.222C105.887 368.222 30.2229 292.559 30.2229 199.222Z" stroke="#FFFFFF" stroke-width="21" stroke-miterlimit="8" fill="#FEC630" fill-rule="evenodd"/></g></g></g><path d="M3693.5 212.5C3693.5 119.164 3769.16 43.5002 3862.5 43.5002L3881.5 43.5002C3974.84 43.5002 4050.5 119.164 4050.5 212.5L4050.5 212.5C4050.5 305.836 3974.84 381.5 3881.5 381.5L3862.5 381.5C3769.16 381.5 3693.5 305.836 3693.5 212.5Z" stroke="#FFFFFF" stroke-width="20.625" stroke-miterlimit="8" fill="#FEC630" fill-rule="evenodd"/><g clip-path="url(#clip33)"><g clip-path="url(#clip34)"><g clip-path="url(#clip35)"><path d="M60.625 24.8563 78.8125 24.8563 78.8125 266.75 60.625 266.75Z" fill="#FFFFFF" transform="matrix(1.00344 0 0 1 3720 62.9999)"/><path d="M203.094 115.188 118.219 115.188 118.219 97.0001 203.094 97.0001 203.094 115.188ZM184.906 145.5 137.922 145.5 137.922 133.375 184.906 133.375 184.906 145.5ZM218.25 24.25 90.9376 24.8563 90.9376 266.75 218.25 266.75C224.919 266.75 230.375 261.294 230.375 254.625L230.375 36.375C230.375 29.7063 224.919 24.25 218.25 24.25Z" fill="#FFFFFF" transform="matrix(1.00344 0 0 1 3720 62.9999)"/></g></g></g><path d="M1179.42 541.002 409 541" stroke="#3B3838" stroke-width="10.3125" stroke-miterlimit="8" fill="none" fill-rule="evenodd"/><path d="M358.5 525C367.06 525 374 532.387 374 541.5 374 550.613 367.06 558 358.5 558 349.94 558 343 550.613 343 541.5 343 532.387 349.94 525 358.5 525Z" fill="#3B3838" fill-rule="evenodd"/><path d="M358.5 492C384.181 492 405 513.938 405 541 405 568.062 384.181 590 358.5 590 332.819 590 312 568.062 312 541 312 513.938 332.819 492 358.5 492Z" stroke="#3B3838" stroke-width="10.3125" stroke-miterlimit="8" fill="none" fill-rule="evenodd"/><path d="M0 0 797.754 0.00649606" stroke="#3B3838" stroke-width="10.3125" stroke-miterlimit="8" fill="none" fill-rule="evenodd" transform="matrix(-1 0 0 1 2073.75 541)"/><path d="M1226 525C1234.28 525 1241 532.387 1241 541.5 1241 550.612 1234.28 558 1226 558 1217.72 558 1211 550.612 1211 541.5 1211 532.387 1217.72 525 1226 525Z" fill="#3B3838" fill-rule="evenodd"/><path d="M1226 492C1251.96 492 1273 513.938 1273 541 1273 568.062 1251.96 590 1226 590 1200.04 590 1179 568.062 1179 541 1179 513.938 1200.04 492 1226 492Z" stroke="#3B3838" stroke-width="10.3125" stroke-miterlimit="8" fill="none" fill-rule="evenodd"/><path d="M0 0 770.982 0.000360892" stroke="#3B3838" stroke-width="10.3125" stroke-miterlimit="8" fill="none" fill-rule="evenodd" transform="matrix(-1 0 0 1 2941.98 541)"/><path d="M2123.5 525C2132.06 525 2139 532.387 2139 541.5 2139 550.612 2132.06 558 2123.5 558 2114.94 558 2108 550.612 2108 541.5 2108 532.387 2114.94 525 2123.5 525Z" fill="#3B3838" fill-rule="evenodd"/><path d="M2121 492C2146.96 492 2168 513.938 2168 541 2168 568.062 2146.96 590 2121 590 2095.04 590 2074 568.062 2074 541 2074 513.938 2095.04 492 2121 492Z" stroke="#3B3838" stroke-width="10.3125" stroke-miterlimit="8" fill="none" fill-rule="evenodd"/><path d="M3836.19 541.001 3039 541" stroke="#3B3838" stroke-width="10.3125" stroke-miterlimit="8" fill="none" fill-rule="evenodd"/><path d="M2989 525C2997.28 525 3004 532.387 3004 541.5 3004 550.612 2997.28 558 2989 558 2980.72 558 2974 550.612 2974 541.5 2974 532.387 2980.72 525 2989 525Z" fill="#3B3838" fill-rule="evenodd"/><path d="M2989 492C3014.96 492 3036 513.938 3036 541 3036 568.062 3014.96 590 2989 590 2963.04 590 2942 568.062 2942 541 2942 513.938 2963.04 492 2989 492Z" stroke="#3B3838" stroke-width="10.3125" stroke-miterlimit="8" fill="none" fill-rule="evenodd"/><path d="M3883.5 525C3892.06 525 3899 532.387 3899 541.5 3899 550.612 3892.06 558 3883.5 558 3874.94 558 3868 550.612 3868 541.5 3868 532.387 3874.94 525 3883.5 525Z" fill="#3B3838" fill-rule="evenodd"/><path d="M3883.5 492C3909.18 492 3930 513.938 3930 541 3930 568.062 3909.18 590 3883.5 590 3857.82 590 3837 568.062 3837 541 3837 513.938 3857.82 492 3883.5 492Z" stroke="#3B3838" stroke-width="10.3125" stroke-miterlimit="8" fill="none" fill-rule="evenodd"/><text fill="#262626" font-family="Arial,Arial_MSFontService,sans-serif" font-weight="700" font-size="64" transform="matrix(1 0 0 1 128.999 721)">Energy saving <tspan font-size="64" x="67.6042" y="77">up to 40% </tspan><tspan font-size="64" x="-3.43751" y="154">(</tspan>inter <tspan font-size="64" x="174.167" y="154">-</tspan><tspan font-size="64" x="213.125" y="154">domain </tspan><tspan font-size="64" x="19.7542" y="231">optimization)</tspan><tspan font-size="64" x="879.568" y="0">Reduced carbon </tspan><tspan font-size="64" x="852.939" y="77">dioxide emissions </tspan><tspan font-size="64" x="823.72" y="154">(~0.54 </tspan><tspan font-size="64" x="1024.24" y="154">Mtons</tspan><tspan font-size="64" x="1229.92" y="154">yearly)</tspan><tspan font-size="64" x="1808.26" y="0">Water saving </tspan><tspan font-size="64" x="1779.62" y="77">from 30 to 40% </tspan><tspan font-size="64" x="2687.26" y="-2">Target PUE </tspan><tspan font-size="64" x="2668.36" y="75">less than </tspan><tspan font-size="64" x="2962.84" y="75">1.2</tspan><tspan font-size="64" x="3612.07" y="3">Whitepaper </tspan><tspan font-size="64" x="3462.81" y="80">recommendations on </tspan><tspan font-size="64" x="3473.69" y="157">optimum design and </tspan><tspan font-size="64" x="3622.95" y="234">operations</tspan></text></g></svg>