<svg width="5487" height="1123" xmlns="http://www.w3.org/2000/svg" xmlns:xlink="http://www.w3.org/1999/xlink" overflow="hidden"><defs><filter id="fx0" x="-10%" y="-10%" width="120%" height="120%" filterUnits="userSpaceOnUse" primitiveUnits="userSpaceOnUse"><feComponentTransfer color-interpolation-filters="sRGB"><feFuncR type="discrete" tableValues="0 0"/><feFuncG type="discrete" tableValues="0 0"/><feFuncB type="discrete" tableValues="0 0"/><feFuncA type="linear" slope="0.4" intercept="0"/></feComponentTransfer><feGaussianBlur stdDeviation="6.11111 6.11111"/></filter><filter id="fx1" x="-10%" y="-10%" width="120%" height="120%" filterUnits="userSpaceOnUse" primitiveUnits="userSpaceOnUse"><feComponentTransfer color-interpolation-filters="sRGB"><feFuncR type="discrete" tableValues="0 0"/><feFuncG type="discrete" tableValues="0 0"/><feFuncB type="discrete" tableValues="0 0"/><feFuncA type="linear" slope="0.4" intercept="0"/></feComponentTransfer><feGaussianBlur stdDeviation="6.11111 6.11111"/></filter><filter id="fx2" x="-10%" y="-10%" width="120%" height="120%" filterUnits="userSpaceOnUse" primitiveUnits="userSpaceOnUse"><feComponentTransfer color-interpolation-filters="sRGB"><feFuncR type="discrete" tableValues="0 0"/><feFuncG type="discrete" tableValues="0 0"/><feFuncB type="discrete" tableValues="0 0"/><feFuncA type="linear" slope="0.4" intercept="0"/></feComponentTransfer><feGaussianBlur stdDeviation="6.11111 6.11111"/></filter><filter id="fx3" x="-10%" y="-10%" width="120%" height="120%" filterUnits="userSpaceOnUse" primitiveUnits="userSpaceOnUse"><feComponentTransfer color-interpolation-filters="sRGB"><feFuncR type="discrete" tableValues="0 0"/><feFuncG type="discrete" tableValues="0 0"/><feFuncB type="discrete" tableValues="0 0"/><feFuncA type="linear" slope="0.4" intercept="0"/></feComponentTransfer><feGaussianBlur stdDeviation="6.11111 6.11111"/></filter><filter id="fx4" x="-10%" y="-10%" width="120%" height="120%" filterUnits="userSpaceOnUse" primitiveUnits="userSpaceOnUse"><feComponentTransfer color-interpolation-filters="sRGB"><feFuncR type="discrete" tableValues="0 0"/><feFuncG type="discrete" tableValues="0 0"/><feFuncB type="discrete" tableValues="0 0"/><feFuncA type="linear" slope="0.4" intercept="0"/></feComponentTransfer><feGaussianBlur stdDeviation="6.11111 6.11111"/></filter><clipPath id="clip5"><rect x="-199" y="151" width="5487" height="1123"/></clipPath><clipPath id="clip6"><path d="M1316.5 180.5C1192.24 180.5 1091.5 281.236 1091.5 405.5L1091.5 411.5C1091.5 535.764 1192.24 636.5 1316.5 636.5 1440.76 636.5 1541.5 535.764 1541.5 411.5L1541.5 405.5C1541.5 281.236 1440.76 180.5 1316.5 180.5ZM-199 151 5288 151 5288 1274-199 1274Z" fill-rule="evenodd" clip-rule="evenodd"/></clipPath><clipPath id="clip7"><rect x="-3" y="-3" width="517" height="523"/></clipPath><clipPath id="clip8"><rect x="0" y="0" width="511" height="517"/></clipPath><clipPath id="clip9"><rect x="1112" y="183" width="415" height="447"/></clipPath><clipPath id="clip10"><rect x="1112" y="183" width="415" height="447"/></clipPath><clipPath id="clip11"><rect x="1112" y="183" width="415" height="447"/></clipPath><clipPath id="clip12"><path d="M206 170.5C81.4599 170.5-19.5 271.46-19.5 396L-19.5 401C-19.5 525.54 81.4599 626.5 206 626.5L206 626.501C330.54 626.501 431.5 525.541 431.5 401L431.5 396C431.5 271.46 330.541 170.5 206 170.5ZM-199 151 5288 151 5288 1274-199 1274Z" fill-rule="evenodd" clip-rule="evenodd"/></clipPath><clipPath id="clip13"><rect x="-3" y="-3" width="517" height="523"/></clipPath><clipPath id="clip14"><rect x="0" y="0" width="512" height="517"/></clipPath><clipPath id="clip15"><rect x="22" y="193" width="382" height="409"/></clipPath><clipPath id="clip16"><rect x="22" y="193" width="382" height="409"/></clipPath><clipPath id="clip17"><rect x="22" y="193" width="382" height="409"/></clipPath><clipPath id="clip18"><path d="M2426.5 173.5C2302.24 173.5 2201.5 274.236 2201.5 398.5L2201.5 404.5C2201.5 528.764 2302.24 629.5 2426.5 629.5 2550.76 629.5 2651.5 528.764 2651.5 404.5L2651.5 398.5C2651.5 274.236 2550.76 173.5 2426.5 173.5ZM-199 151 5288 151 5288 1274-199 1274Z" fill-rule="evenodd" clip-rule="evenodd"/></clipPath><clipPath id="clip19"><rect x="-3" y="-3" width="517" height="523"/></clipPath><clipPath id="clip20"><rect x="0" y="0" width="511" height="517"/></clipPath><clipPath id="clip21"><rect x="2219" y="181" width="405" height="433"/></clipPath><clipPath id="clip22"><rect x="2219" y="181" width="405" height="433"/></clipPath><clipPath id="clip23"><rect x="2219" y="181" width="405" height="433"/></clipPath><clipPath id="clip24"><path d="M3536.5 194.5C3412.24 194.5 3311.5 295.236 3311.5 419.5L3311.5 425.5C3311.5 549.764 3412.24 650.5 3536.5 650.5 3660.76 650.5 3761.5 549.764 3761.5 425.5L3761.5 419.5C3761.5 295.236 3660.76 194.5 3536.5 194.5ZM-199 151 5288 151 5288 1274-199 1274Z" fill-rule="evenodd" clip-rule="evenodd"/></clipPath><clipPath id="clip25"><rect x="-3" y="-3" width="517" height="523"/></clipPath><clipPath id="clip26"><rect x="0" y="0" width="511" height="517"/></clipPath><clipPath id="clip27"><rect x="3331" y="206" width="387" height="415"/></clipPath><clipPath id="clip28"><rect x="3331" y="206" width="387" height="415"/></clipPath><clipPath id="clip29"><rect x="3331" y="206" width="387" height="415"/></clipPath><clipPath id="clip30"><path d="M4646.5 170.5C4522.24 170.5 4421.5 271.236 4421.5 395.5L4421.5 401.5C4421.5 525.764 4522.24 626.5 4646.5 626.5 4770.76 626.5 4871.5 525.764 4871.5 401.5L4871.5 395.5C4871.5 271.236 4770.76 170.5 4646.5 170.5ZM-199 151 5288 151 5288 1274-199 1274Z" fill-rule="evenodd" clip-rule="evenodd"/></clipPath><clipPath id="clip31"><rect x="-3" y="-3" width="517" height="523"/></clipPath><clipPath id="clip32"><rect x="0" y="0" width="511" height="517"/></clipPath><clipPath id="clip33"><rect x="4455" y="195" width="368" height="394"/></clipPath><clipPath id="clip34"><rect x="4455" y="195" width="368" height="394"/></clipPath><clipPath id="clip35"><rect x="4455" y="195" width="368" height="394"/></clipPath></defs><g clip-path="url(#clip5)" transform="translate(199 -151)"><g clip-path="url(#clip6)"><g clip-path="url(#clip7)" filter="url(#fx0)" transform="translate(1071 160)"><g clip-path="url(#clip8)"><path d="M30.2227 255.223C30.2227 130.959 130.959 30.2227 255.223 30.2227L255.223 30.2227C379.487 30.2227 480.223 130.959 480.223 255.223L480.223 261.223C480.223 385.487 379.487 486.223 255.223 486.223L255.223 486.223C130.959 486.223 30.2227 385.487 30.2227 261.223Z" stroke="#FFFFFF" stroke-width="21" stroke-miterlimit="8" fill="#69B4FF" fill-rule="evenodd"/></g></g></g><path d="M1091.5 405.5C1091.5 281.236 1192.24 180.5 1316.5 180.5L1316.5 180.5C1440.76 180.5 1541.5 281.236 1541.5 405.5L1541.5 411.5C1541.5 535.764 1440.76 636.5 1316.5 636.5L1316.5 636.5C1192.24 636.5 1091.5 535.764 1091.5 411.5Z" stroke="#FFFFFF" stroke-width="20.625" stroke-miterlimit="8" fill="#69B4FF" fill-rule="evenodd"/><g clip-path="url(#clip9)"><g clip-path="url(#clip10)"><g clip-path="url(#clip11)"><path d="M367.016 200.073C360.987 118.691 296.275 53.9941 214.892 47.9844 169.358 44.5732 124.485 60.4382 91.2135 91.7107 24.8518 153.468 21.1195 257.33 82.8772 323.692 93.4727 335.077 105.633 344.899 118.993 352.862 144.313 367.989 177.102 359.726 192.229 334.406 197.177 326.124 199.789 316.656 199.788 307.009 199.788 290.02 200.41 281.4 203.488 273.264 223.586 271.984 241.642 260.539 251.378 242.909L251.378 242.909C277.146 197.894 257.862 155.361 230.787 110.943 230.787 110.943 195.837 148.19 168.736 163.605 140.798 180.614 131.939 217.051 148.948 244.989 148.953 244.997 148.958 245.006 148.963 245.014 153.493 252.409 159.607 258.708 166.865 263.456 172.625 238.608 181.284 214.523 192.664 191.695 194.082 189.069 197.361 188.09 199.987 189.508 202.613 190.926 203.592 194.205 202.174 196.831 202.092 196.982 198.448 203.825 193.554 215.817 186.466 234.837 180.897 254.389 176.898 274.289 176.898 274.341 176.288 277.7 176.033 279.286L176.033 279.286C174.909 285.787 174.381 292.377 174.456 298.973L174.456 298.973C174.456 317.726 168.659 325.956 159.926 330.906 151.363 335.843 140.79 335.721 132.342 330.591 66.767 291.533 45.2709 206.711 84.3288 141.137 91.0436 129.863 99.3298 119.603 108.937 110.667 136.964 84.3237 174.764 70.9589 213.12 73.8311 289.245 79.2187 346.59 145.298 341.202 221.423 340.11 236.852 336.436 251.988 330.331 266.201 311.071 254.839 286.563 257.943 270.744 273.749L247.573 296.885 259.141 308.453 240.635 326.959C236.881 330.871 237.009 337.086 240.92 340.84 244.719 344.486 250.717 344.486 254.516 340.84L273.022 322.334 291.529 340.84 273.022 359.347C269.189 363.178 269.188 369.392 273.02 373.225 276.852 377.059 283.066 377.059 286.899 373.228L305.41 354.721 316.973 366.289 340.11 343.153C354.994 328.256 358.709 305.522 349.343 286.661 363.035 259.956 369.147 230.008 367.016 200.073Z" fill="#FFFFFF" transform="matrix(1 0 0 1.07229 1112 184)"/></g></g></g><g clip-path="url(#clip12)"><g clip-path="url(#clip13)" filter="url(#fx1)" transform="translate(-40 150)"><g clip-path="url(#clip14)"><path d="M30.2226 255.723C30.2226 131.183 131.183 30.2227 255.723 30.2227L255.723 30.2227C380.263 30.2227 481.223 131.183 481.223 255.723L481.223 260.723C481.223 385.264 380.263 486.223 255.722 486.223L255.723 486.223C131.183 486.223 30.2226 385.263 30.2226 260.723Z" stroke="#FFFFFF" stroke-width="21" stroke-miterlimit="8" fill="#52C9BD" fill-rule="evenodd"/></g></g></g><path d="M-19.5001 396C-19.5001 271.46 81.4598 170.5 206 170.5L206 170.5C330.54 170.5 431.5 271.46 431.5 396L431.5 401C431.5 525.541 330.54 626.501 206 626.501L206 626.5C81.4598 626.5-19.5001 525.54-19.5001 401Z" stroke="#FFFFFF" stroke-width="20.625" stroke-miterlimit="8" fill="#52C9BD" fill-rule="evenodd"/><g clip-path="url(#clip15)"><g clip-path="url(#clip16)"><g clip-path="url(#clip17)"><path d="M163.146 258.646 39.7917 258.646 39.7917 115.396 148.741 115.396 158.45 91.5208 31.8333 91.5208C23.0428 91.5208 15.9167 98.6471 15.9167 107.437L15.9167 266.604C15.9167 275.394 23.0428 282.521 31.8333 282.521L163.146 282.521Z" fill="#FFFFFF" transform="matrix(1 0 0 1.06806 22 194)"/><path d="M350.167 151.208 334.25 151.208 334.25 107.437C334.25 98.6471 327.124 91.5208 318.333 91.5208L202.937 91.5208 202.937 115.396 310.375 115.396 310.375 258.646 222.833 258.646 212.288 282.521 318.333 282.521C327.124 282.521 334.25 275.394 334.25 266.604L334.25 222.833 350.167 222.833C358.957 222.833 366.083 215.707 366.083 206.917L366.083 167.125C366.083 158.335 358.957 151.208 350.167 151.208Z" fill="#FFFFFF" transform="matrix(1 0 0 1.06806 22 194)"/><path d="M187.021 183.042 187.021 63.6666 122.121 222.714 179.062 222.833 179.062 318.333 238.75 183.042 187.021 183.042Z" fill="#FFFFFF" transform="matrix(1 0 0 1.06806 22 194)"/></g></g></g><g clip-path="url(#clip18)"><g clip-path="url(#clip19)" filter="url(#fx2)" transform="translate(2181 153)"><g clip-path="url(#clip20)"><path d="M30.2227 255.223C30.2227 130.959 130.959 30.2228 255.223 30.2228L255.223 30.2228C379.487 30.2228 480.223 130.959 480.223 255.223L480.223 261.223C480.223 385.487 379.487 486.223 255.223 486.223L255.223 486.223C130.959 486.223 30.2227 385.487 30.2227 261.223Z" stroke="#FFFFFF" stroke-width="21" stroke-miterlimit="8" fill="#F86060" fill-rule="evenodd"/></g></g></g><path d="M2201.5 398.5C2201.5 274.236 2302.24 173.5 2426.5 173.5L2426.5 173.5C2550.76 173.5 2651.5 274.236 2651.5 398.5L2651.5 404.5C2651.5 528.764 2550.76 629.5 2426.5 629.5L2426.5 629.5C2302.24 629.5 2201.5 528.764 2201.5 404.5Z" stroke="#FFFFFF" stroke-width="20.625" stroke-miterlimit="8" fill="#F86060" fill-rule="evenodd"/><g clip-path="url(#clip21)"><g clip-path="url(#clip22)"><g clip-path="url(#clip23)"><path d="M231.484 130.458 211.284 130.458 202.025 118.885 202.025 84.1666 244.109 84.1666 244.109 58.9167 211.284 58.9167 197.817 42.0833 164.15 42.0833 150.684 58.9167 117.859 58.9167 117.859 84.1666 159.942 84.1666 159.942 118.885 150.684 130.458 67.3586 130.458 67.3586 197.792 231.484 197.792C252.392 197.815 269.335 214.758 269.359 235.667L269.359 244.083 336.692 244.083 336.692 235.667C336.627 177.589 289.561 130.523 231.484 130.458Z" fill="#FFFFFF" transform="matrix(1 0 0 1.07178 2220 181)"/><path d="M275.04 332.812C274.848 348.666 287.545 361.675 303.399 361.867 319.254 362.058 332.262 349.361 332.454 333.507 332.457 333.275 332.457 333.044 332.454 332.812 332.458 314.333 303.749 273.542 303.749 273.542 303.749 273.542 275.04 314.451 275.04 332.812Z" fill="#FFFFFF" transform="matrix(1 0 0 1.07178 2220 181)"/></g></g></g><g clip-path="url(#clip24)"><g clip-path="url(#clip25)" filter="url(#fx3)" transform="translate(3291 174)"><g clip-path="url(#clip26)"><path d="M30.2227 255.223C30.2227 130.959 130.959 30.2228 255.223 30.2228L255.223 30.2228C379.487 30.2228 480.222 130.959 480.222 255.223L480.222 261.223C480.222 385.487 379.487 486.223 255.223 486.223L255.223 486.223C130.959 486.223 30.2227 385.487 30.2227 261.223Z" stroke="#FFFFFF" stroke-width="21" stroke-miterlimit="8" fill="#404040" fill-rule="evenodd"/></g></g></g><path d="M3311.5 419.5C3311.5 295.236 3412.24 194.5 3536.5 194.5L3536.5 194.5C3660.76 194.5 3761.5 295.236 3761.5 419.5L3761.5 425.5C3761.5 549.764 3660.76 650.5 3536.5 650.5L3536.5 650.5C3412.24 650.5 3311.5 549.764 3311.5 425.5Z" stroke="#FFFFFF" stroke-width="20.625" stroke-miterlimit="8" fill="#404040" fill-rule="evenodd"/><g clip-path="url(#clip27)"><g clip-path="url(#clip28)"><g clip-path="url(#clip29)"><path d="M96.5 108.563 117.248 169.478C104.251 178.006 100.627 195.454 109.155 208.451 117.682 221.448 135.131 225.071 148.128 216.544 156.06 211.339 160.837 202.488 160.833 193 160.817 189.378 160.122 185.791 158.783 182.425L200.398 151.264C205.236 154.856 211.099 156.801 217.125 156.813L217.527 156.813 244.587 242.818C232.13 252.115 229.567 269.751 238.864 282.209 248.161 294.666 265.797 297.229 278.255 287.932 290.713 278.635 293.275 260.999 283.978 248.541 278.651 241.403 270.26 237.208 261.354 237.229L259.706 237.229 232.887 151.988C245.775 143.298 249.179 125.805 240.49 112.916 231.8 100.027 214.307 96.6234 201.418 105.313 190.663 112.564 186.256 126.228 190.748 138.397L148.771 169.88C144.049 166.602 138.436 164.848 132.688 164.854L132.688 164.854 111.86 103.979C124.873 95.4763 128.529 78.0343 120.026 65.0213 111.524 52.0083 94.0819 48.3521 81.0689 56.8546 68.0558 65.3574 64.3997 82.799 72.9021 95.812 78.1071 103.778 86.9843 108.575 96.5 108.563Z" fill="#FFFFFF" transform="matrix(1 0 0 1.06995 3332 207)"/><path d="M309.604 309.604 56.2917 309.604 56.2917 333.729 333.729 333.729 333.729 52.2708 309.604 52.2708 309.604 309.604Z" fill="#FFFFFF" transform="matrix(1 0 0 1.06995 3332 207)"/></g></g></g><g clip-path="url(#clip30)"><g clip-path="url(#clip31)" filter="url(#fx4)" transform="translate(4401 150)"><g clip-path="url(#clip32)"><path d="M30.2227 255.223C30.2227 130.959 130.959 30.2227 255.223 30.2227L255.223 30.2227C379.487 30.2227 480.223 130.959 480.223 255.223L480.223 261.223C480.223 385.487 379.487 486.223 255.223 486.223L255.223 486.223C130.959 486.223 30.2227 385.487 30.2227 261.223Z" stroke="#FFFFFF" stroke-width="21" stroke-miterlimit="8" fill="#FEC630" fill-rule="evenodd"/></g></g></g><path d="M4421.5 395.5C4421.5 271.236 4522.24 170.5 4646.5 170.5L4646.5 170.5C4770.76 170.5 4871.5 271.236 4871.5 395.5L4871.5 401.5C4871.5 525.764 4770.76 626.5 4646.5 626.5L4646.5 626.5C4522.24 626.5 4421.5 525.764 4421.5 401.5Z" stroke="#FFFFFF" stroke-width="20.625" stroke-miterlimit="8" fill="#FEC630" fill-rule="evenodd"/><g clip-path="url(#clip33)"><g clip-path="url(#clip34)"><g clip-path="url(#clip35)"><path d="M76.4584 31.3479 99.3959 31.3479 99.3959 336.417 76.4584 336.417Z" fill="#FFFFFF" transform="matrix(1 0 0 1.07084 4455 196)"/><path d="M256.135 145.271 149.094 145.271 149.094 122.333 256.135 122.333 256.135 145.271ZM233.198 183.5 173.943 183.5 173.943 168.208 233.198 168.208 233.198 183.5ZM275.25 30.5833 114.688 31.3479 114.688 336.417 275.25 336.417C283.66 336.417 290.542 329.536 290.542 321.125L290.542 45.875C290.542 37.4646 283.66 30.5833 275.25 30.5833Z" fill="#FFFFFF" transform="matrix(1 0 0 1.07084 4455 196)"/></g></g></g><path d="M1253.68 842.002 283 842" stroke="#3B3838" stroke-width="10.3125" stroke-miterlimit="8" fill="none" fill-rule="evenodd"/><path d="M219.5 820C230.27 820 239 829.849 239 842 239 854.15 230.27 864 219.5 864 208.731 864 200 854.15 200 842 200 829.849 208.731 820 219.5 820Z" fill="#3B3838" fill-rule="evenodd"/><path d="M219 776C251.585 776 278 805.549 278 842 278 878.451 251.585 908 219 908 186.415 908 160 878.451 160 842 160 805.549 186.415 776 219 776Z" stroke="#3B3838" stroke-width="10.3125" stroke-miterlimit="8" fill="none" fill-rule="evenodd"/><path d="M0 0 1005.13 0.00866142" stroke="#3B3838" stroke-width="10.3125" stroke-miterlimit="8" fill="none" fill-rule="evenodd" transform="matrix(-1 0 0 1 2381.13 842)"/><path d="M1312.5 820C1323.27 820 1332 829.85 1332 842 1332 854.15 1323.27 864 1312.5 864 1301.73 864 1293 854.15 1293 842 1293 829.85 1301.73 820 1312.5 820Z" fill="#3B3838" fill-rule="evenodd"/><path d="M1312 776C1344.58 776 1371 805.549 1371 842 1371 878.45 1344.58 908 1312 908 1279.42 908 1253 878.45 1253 842 1253 805.549 1279.42 776 1312 776Z" stroke="#3B3838" stroke-width="10.3125" stroke-miterlimit="8" fill="none" fill-rule="evenodd"/><path d="M0 0 971.398 0.000360892" stroke="#3B3838" stroke-width="10.3125" stroke-miterlimit="8" fill="none" fill-rule="evenodd" transform="matrix(-1 0 0 1 3474.4 842)"/><path d="M2443.5 820C2454.27 820 2463 829.849 2463 842 2463 854.15 2454.27 864 2443.5 864 2432.73 864 2424 854.15 2424 842 2424 829.849 2432.73 820 2443.5 820Z" fill="#3B3838" fill-rule="evenodd"/><path d="M2440 776C2472.58 776 2499 805.549 2499 842 2499 878.45 2472.58 908 2440 908 2407.42 908 2381 878.45 2381 842 2381 805.549 2407.42 776 2440 776Z" stroke="#3B3838" stroke-width="10.3125" stroke-miterlimit="8" fill="none" fill-rule="evenodd"/><path d="M4601.41 842.001 3597 842" stroke="#3B3838" stroke-width="10.3125" stroke-miterlimit="8" fill="none" fill-rule="evenodd"/><path d="M3533.5 820C3544.27 820 3553 829.849 3553 842 3553 854.15 3544.27 864 3533.5 864 3522.73 864 3514 854.15 3514 842 3514 829.849 3522.73 820 3533.5 820Z" fill="#3B3838" fill-rule="evenodd"/><path d="M3534 776C3566.58 776 3593 805.549 3593 842 3593 878.45 3566.58 908 3534 908 3501.42 908 3475 878.45 3475 842 3475 805.549 3501.42 776 3534 776Z" stroke="#3B3838" stroke-width="10.3125" stroke-miterlimit="8" fill="none" fill-rule="evenodd"/><path d="M4660.5 820C4671.27 820 4680 829.85 4680 842 4680 854.15 4671.27 864 4660.5 864 4649.73 864 4641 854.15 4641 842 4641 829.85 4649.73 820 4660.5 820Z" fill="#3B3838" fill-rule="evenodd"/><path d="M4660.5 776C4692.81 776 4719 805.549 4719 842 4719 878.451 4692.81 908 4660.5 908 4628.19 908 4602 878.451 4602 842 4602 805.549 4628.19 776 4660.5 776Z" stroke="#3B3838" stroke-width="10.3125" stroke-miterlimit="8" fill="none" fill-rule="evenodd"/><text fill="#262626" font-family="Arial,Arial_MSFontService,sans-serif" font-weight="700" font-size="92" transform="matrix(1 0 0 1 -124.278 1075)">Energy saving up <tspan font-size="92" x="234.621" y="110">to 40</tspan><tspan font-size="92" x="448.319" y="110">% </tspan><tspan font-size="92" x="1118.67" y="9">Reduced carbon </tspan><tspan font-size="92" x="1081.13" y="119">dioxide emissions </tspan><tspan font-size="92" x="2298.61" y="9">Water saving </tspan><tspan font-size="92" x="2258.24" y="119">from 30 to 40% </tspan><tspan font-size="92" x="3410.73" y="6">Target PUE </tspan><tspan font-size="92" x="3383.23" y="116">less than 1.2</tspan><tspan font-size="92" x="4575.44" y="13">Whitepaper </tspan><tspan font-size="92" x="4430.19" y="123">recommendations</tspan></text></g></svg>